<svg width="49" height="48" viewBox="0 0 49 48" fill="none" xmlns="http://www.w3.org/2000/svg">
<path d="M24.249 23.9993H24.269M31.3201 31.0704C21.9475 40.443 11.1837 44.8751 7.27846 40.9699C3.37322 37.0646 7.80538 26.3008 17.178 16.9282C26.5505 7.55566 37.3143 3.1235 41.2196 7.02875C45.1248 10.934 40.6927 21.6978 31.3201 31.0704ZM31.32 16.9279C40.6926 26.3005 45.1248 37.0643 41.2195 40.9695C37.3143 44.8748 26.5505 40.4426 17.1779 31.07C7.8053 21.6974 3.37314 10.9336 7.27838 7.02838C11.1836 3.12314 21.9474 7.5553 31.32 16.9279ZM25.249 23.9993C25.249 24.5516 24.8013 24.9993 24.249 24.9993C23.6967 24.9993 23.249 24.5516 23.249 23.9993C23.249 23.447 23.6967 22.9993 24.249 22.9993C24.8013 22.9993 25.249 23.447 25.249 23.9993Z" stroke="#4F40FF" stroke-width="2" stroke-linecap="round" stroke-linejoin="round"/>
</svg>
