<svg width="32" height="32" viewBox="0 0 32 32" fill="none" xmlns="http://www.w3.org/2000/svg">
<path d="M10.4915 20.6145L9.33333 29.3346L15.4512 25.6639C15.6507 25.5442 15.7505 25.4843 15.857 25.4609C15.9512 25.4403 16.0488 25.4403 16.143 25.4609C16.2495 25.4843 16.3493 25.5442 16.5488 25.6639L22.6667 29.3346L21.5092 20.6108M21.9012 5.66648C22.1071 6.1645 22.5024 6.56037 23.0001 6.76704L24.7452 7.48995C25.2433 7.69625 25.639 8.09196 25.8453 8.59003C26.0516 9.08809 26.0516 9.64771 25.8453 10.1458L25.1229 11.8898C24.9165 12.3881 24.9162 12.9482 25.1236 13.4463L25.8447 15.1898C25.9469 15.4365 25.9996 15.7009 25.9996 15.9679C25.9997 16.235 25.9471 16.4994 25.8449 16.7461C25.7427 16.9928 25.5929 17.217 25.4041 17.4058C25.2152 17.5946 24.991 17.7443 24.7443 17.8464L23.0004 18.5688C22.5023 18.7748 22.1065 19.17 21.8998 19.6677L21.1769 21.413C20.9707 21.9111 20.575 22.3068 20.0769 22.5131C19.5789 22.7194 19.0193 22.7194 18.5212 22.5131L16.7773 21.7907C16.2792 21.5849 15.7198 21.5853 15.2221 21.7919L13.4769 22.5137C12.9791 22.7196 12.42 22.7194 11.9224 22.5132C11.4247 22.3071 11.0293 21.9119 10.8228 21.4143L10.0997 19.6686C9.8938 19.1705 9.49854 18.7747 9.00085 18.568L7.25566 17.8451C6.75783 17.6389 6.36226 17.2434 6.15588 16.7456C5.94951 16.2479 5.94923 15.6885 6.1551 15.1905L6.87746 13.4465C7.08325 12.9484 7.08283 12.389 6.8763 11.8913L6.15497 10.1448C6.0527 9.89807 6.00004 9.63365 6 9.3666C5.99996 9.09956 6.05253 8.83512 6.15472 8.5884C6.25691 8.34168 6.40671 8.11752 6.59557 7.92872C6.78442 7.73992 7.00862 7.59019 7.25537 7.48807L8.9993 6.76569C9.49687 6.55994 9.89249 6.16517 10.0993 5.66803L10.8222 3.92278C11.0285 3.42471 11.4242 3.029 11.9222 2.8227C12.4203 2.61639 12.9799 2.61639 13.4779 2.8227L15.2218 3.54508C15.7199 3.75088 16.2793 3.75046 16.7771 3.54392L18.523 2.82382C19.021 2.61763 19.5804 2.61767 20.0784 2.82394C20.5763 3.0302 20.972 3.4258 21.1783 3.92373L21.9014 5.6695L21.9012 5.66648Z" stroke="#4F40FF" stroke-width="1.5" stroke-linecap="round" stroke-linejoin="round"/>
</svg>
