<svg width="49" height="48" viewBox="0 0 49 48" fill="none" xmlns="http://www.w3.org/2000/svg">
<path d="M38.25 20V12.4C38.25 10.1598 38.25 9.03969 37.814 8.18404C37.4305 7.43139 36.8186 6.81947 36.066 6.43597C35.2103 6 34.0902 6 31.85 6H16.65C14.4098 6 13.2897 6 12.434 6.43597C11.6814 6.81947 11.0695 7.43139 10.686 8.18404C10.25 9.03969 10.25 10.1598 10.25 12.4V20M10.25 18H4.25V16M38.25 18H44.25V16M12.25 27H12.27M36.25 27H36.27M13.85 20H34.65C38.0103 20 39.6905 20 40.9739 20.654C42.1029 21.2292 43.0208 22.1471 43.596 23.2761C44.25 24.5595 44.25 26.2397 44.25 29.6V36C44.25 37.8638 44.25 38.7956 43.9455 39.5307C43.5395 40.5108 42.7608 41.2895 41.7807 41.6955C41.0457 42 40.1138 42 38.25 42H37.05C36.3068 42 35.9352 42 35.6243 41.9508C33.9127 41.6797 32.5703 40.3373 32.2992 38.6257C32.25 38.3148 32.25 37.9432 32.25 37.2C32.25 37.0142 32.25 36.9213 32.2377 36.8436C32.1699 36.4157 31.8343 36.0801 31.4064 36.0123C31.3287 36 31.2358 36 31.05 36H17.45C17.2642 36 17.1713 36 17.0936 36.0123C16.6657 36.0801 16.3301 36.4157 16.2623 36.8436C16.25 36.9213 16.25 37.0142 16.25 37.2C16.25 37.9432 16.25 38.3148 16.2008 38.6257C15.9297 40.3373 14.5873 41.6797 12.8757 41.9508C12.5648 42 12.1932 42 11.45 42H10.25C8.38623 42 7.45435 42 6.71927 41.6955C5.73915 41.2895 4.96046 40.5108 4.55448 39.5307C4.25 38.7956 4.25 37.8638 4.25 36V29.6C4.25 26.2397 4.25 24.5595 4.90396 23.2761C5.4792 22.1471 6.39708 21.2292 7.52606 20.654C8.80953 20 10.4897 20 13.85 20ZM13.25 27C13.25 27.5523 12.8023 28 12.25 28C11.6977 28 11.25 27.5523 11.25 27C11.25 26.4477 11.6977 26 12.25 26C12.8023 26 13.25 26.4477 13.25 27ZM37.25 27C37.25 27.5523 36.8023 28 36.25 28C35.6977 28 35.25 27.5523 35.25 27C35.25 26.4477 35.6977 26 36.25 26C36.8023 26 37.25 26.4477 37.25 27Z" stroke="#4F40FF" stroke-width="2" stroke-linecap="round" stroke-linejoin="round"/>
</svg>
