<svg width="32" height="32" viewBox="0 0 32 32" fill="none" xmlns="http://www.w3.org/2000/svg">
<path d="M25.3346 2.66797H28.0013C28.7377 2.66797 29.3346 3.26492 29.3346 4.0013V6.66797M28.0013 4.0013C17.4126 12.5231 11.9241 14.8185 2.66797 16.0013M24.0013 13.3346V26.668C24.0013 28.1407 25.1952 29.3346 26.668 29.3346C28.1407 29.3346 29.3346 28.1407 29.3346 26.668V13.3346C29.3346 11.8619 28.1407 10.668 26.668 10.668C25.1952 10.668 24.0013 11.8619 24.0013 13.3346ZM2.66797 24.0013L2.66797 26.668C2.66797 28.1407 3.86188 29.3346 5.33464 29.3346C6.80739 29.3346 8.0013 28.1407 8.0013 26.668L8.0013 24.0013C8.0013 22.5285 6.80739 21.3346 5.33464 21.3346C3.86188 21.3346 2.66797 22.5285 2.66797 24.0013ZM13.3346 18.668V26.668C13.3346 28.1407 14.5285 29.3346 16.0013 29.3346C17.4741 29.3346 18.668 28.1407 18.668 26.668V18.668C18.668 17.1952 17.4741 16.0013 16.0013 16.0013C14.5285 16.0013 13.3346 17.1952 13.3346 18.668Z" stroke="#4F40FF" stroke-width="1.5" stroke-linecap="round" stroke-linejoin="round"/>
</svg>
