<svg width="32" height="32" viewBox="0 0 32 32" fill="none" xmlns="http://www.w3.org/2000/svg">
<path d="M10.668 18.6667H21.3346M10.668 13.3333H16.0013M29.2898 14.9555C29.3195 15.2997 29.3346 15.6481 29.3346 16C29.3346 22.6274 23.9621 28 17.3346 28H8.0013C5.05578 28 2.66797 25.6122 2.66797 22.6667V16C2.66797 9.37258 8.04055 4 14.668 4H17.3346C17.6866 4 18.0349 4.01515 18.3792 4.04483M29.3346 8C29.3346 10.2091 27.5438 12 25.3346 12C23.1255 12 21.3346 10.2091 21.3346 8C21.3346 5.79086 23.1255 4 25.3346 4C27.5438 4 29.3346 5.79086 29.3346 8Z" stroke="#4F40FF" stroke-width="1.5" stroke-linecap="round"/>
</svg>
