<svg width="49" height="48" viewBox="0 0 49 48" fill="none" xmlns="http://www.w3.org/2000/svg">
<path d="M4.25 24C4.25 35.0457 13.2043 44 24.25 44C27.5637 44 30.25 41.3137 30.25 38V37C30.25 36.0712 30.25 35.6067 30.3013 35.2168C30.6558 32.5244 32.7744 30.4058 35.4668 30.0513C35.8567 30 36.3212 30 37.25 30H38.25C41.5637 30 44.25 27.3137 44.25 24C44.25 12.9543 35.2957 4 24.25 4C13.2043 4 4.25 12.9543 4.25 24Z" stroke="#4F40FF" stroke-width="2" stroke-linecap="round" stroke-linejoin="round"/>
<path d="M14.25 26C15.3546 26 16.25 25.1046 16.25 24C16.25 22.8954 15.3546 22 14.25 22C13.1454 22 12.25 22.8954 12.25 24C12.25 25.1046 13.1454 26 14.25 26Z" stroke="#4F40FF" stroke-width="2" stroke-linecap="round" stroke-linejoin="round"/>
<path d="M32.25 18C33.3546 18 34.25 17.1046 34.25 16C34.25 14.8954 33.3546 14 32.25 14C31.1454 14 30.25 14.8954 30.25 16C30.25 17.1046 31.1454 18 32.25 18Z" stroke="#4F40FF" stroke-width="2" stroke-linecap="round" stroke-linejoin="round"/>
<path d="M20.25 16C21.3546 16 22.25 15.1046 22.25 14C22.25 12.8954 21.3546 12 20.25 12C19.1454 12 18.25 12.8954 18.25 14C18.25 15.1046 19.1454 16 20.25 16Z" stroke="#4F40FF" stroke-width="2" stroke-linecap="round" stroke-linejoin="round"/>
</svg>
