<svg width="32" height="32" viewBox="0 0 32 32" fill="none" xmlns="http://www.w3.org/2000/svg">
<path d="M28.2641 29.3346C28.6374 29.3346 28.8241 29.3346 28.9667 29.262C29.0922 29.1981 29.1942 29.0961 29.2581 28.9706C29.3307 28.828 29.3307 28.6413 29.3307 28.268V14.4013C29.3307 14.0279 29.3307 13.8413 29.2581 13.6986C29.1942 13.5732 29.0922 13.4712 28.9667 13.4073C28.8241 13.3346 28.6374 13.3346 28.2641 13.3346L25.0641 13.3346C24.6907 13.3346 24.504 13.3346 24.3614 13.4073C24.236 13.4712 24.134 13.5732 24.0701 13.6986C23.9974 13.8413 23.9974 14.0279 23.9974 14.4013V17.6013C23.9974 17.9747 23.9974 18.1614 23.9247 18.304C23.8608 18.4294 23.7588 18.5314 23.6334 18.5953C23.4908 18.668 23.3041 18.668 22.9307 18.668H19.7307C19.3574 18.668 19.1707 18.668 19.0281 18.7406C18.9026 18.8045 18.8006 18.9065 18.7367 19.032C18.6641 19.1746 18.6641 19.3613 18.6641 19.7346V22.9346C18.6641 23.308 18.6641 23.4947 18.5914 23.6373C18.5275 23.7627 18.4255 23.8647 18.3001 23.9286C18.1574 24.0013 17.9708 24.0013 17.5974 24.0013H14.3974C14.024 24.0013 13.8373 24.0013 13.6947 24.074C13.5693 24.1379 13.4673 24.2399 13.4034 24.3653C13.3307 24.5079 13.3307 24.6946 13.3307 25.068V28.268C13.3307 28.6413 13.3307 28.828 13.4034 28.9706C13.4673 29.0961 13.5693 29.1981 13.6947 29.262C13.8373 29.3346 14.024 29.3346 14.3974 29.3346L28.2641 29.3346Z" stroke="#4F40FF" stroke-width="2" stroke-linecap="round" stroke-linejoin="round"/>
<path d="M13.3307 9.06797C13.3307 8.6946 13.3307 8.50792 13.4034 8.36531C13.4673 8.23987 13.5693 8.13788 13.6947 8.07396C13.8373 8.0013 14.024 8.0013 14.3974 8.0013H17.5974C17.9708 8.0013 18.1574 8.0013 18.3001 8.07396C18.4255 8.13788 18.5275 8.23987 18.5914 8.36531C18.6641 8.50792 18.6641 8.6946 18.6641 9.06797V12.268C18.6641 12.6413 18.6641 12.828 18.5914 12.9706C18.5275 13.0961 18.4255 13.1981 18.3001 13.262C18.1574 13.3346 17.9708 13.3346 17.5974 13.3346H14.3974C14.024 13.3346 13.8373 13.3346 13.6947 13.262C13.5693 13.1981 13.4673 13.0961 13.4034 12.9706C13.3307 12.828 13.3307 12.6413 13.3307 12.268V9.06797Z" stroke="#4F40FF" stroke-width="2" stroke-linecap="round" stroke-linejoin="round"/>
<path d="M3.9974 17.068C3.9974 16.6946 3.9974 16.5079 4.07006 16.3653C4.13397 16.2399 4.23596 16.1379 4.3614 16.074C4.50401 16.0013 4.69069 16.0013 5.06406 16.0013H8.26406C8.63743 16.0013 8.82412 16.0013 8.96672 16.074C9.09216 16.1379 9.19415 16.2399 9.25807 16.3653C9.33073 16.5079 9.33073 16.6946 9.33073 17.068V20.268C9.33073 20.6413 9.33073 20.828 9.25807 20.9706C9.19415 21.0961 9.09216 21.1981 8.96672 21.262C8.82412 21.3346 8.63743 21.3346 8.26406 21.3346H5.06406C4.69069 21.3346 4.50401 21.3346 4.3614 21.262C4.23596 21.1981 4.13397 21.0961 4.07006 20.9706C3.9974 20.828 3.9974 20.6413 3.9974 20.268V17.068Z" stroke="#4F40FF" stroke-width="2" stroke-linecap="round" stroke-linejoin="round"/>
<path d="M2.66406 3.73464C2.66406 3.36127 2.66406 3.17458 2.73672 3.03198C2.80064 2.90653 2.90263 2.80455 3.02807 2.74063C3.17068 2.66797 3.35736 2.66797 3.73073 2.66797H6.93073C7.3041 2.66797 7.49078 2.66797 7.63339 2.74063C7.75883 2.80455 7.86082 2.90653 7.92473 3.03198C7.9974 3.17458 7.9974 3.36127 7.9974 3.73464V6.93464C7.9974 7.308 7.9974 7.49469 7.92473 7.6373C7.86082 7.76274 7.75883 7.86472 7.63339 7.92864C7.49078 8.0013 7.3041 8.0013 6.93073 8.0013H3.73073C3.35736 8.0013 3.17068 8.0013 3.02807 7.92864C2.90263 7.86472 2.80064 7.76274 2.73672 7.6373C2.66406 7.49469 2.66406 7.308 2.66406 6.93464V3.73464Z" stroke="#4F40FF" stroke-width="2" stroke-linecap="round" stroke-linejoin="round"/>
</svg>
