<svg width="32" height="32" viewBox="0 0 32 32" fill="none" xmlns="http://www.w3.org/2000/svg">
<path d="M20.7903 22.7123H26.668C28.1407 22.7123 29.3346 21.395 29.3346 19.7701V11.4285C29.3346 10.3141 28.764 9.29535 27.8605 8.79696L25.1274 7.2892C24.3868 6.88066 23.5702 6.66797 22.7423 6.66797H19.898C18.2778 6.66797 16.7455 7.48054 15.7333 8.87641L15.6999 8.92258M15.6999 8.92258L13.114 12.4889C12.4805 13.3625 12.5438 14.622 13.2608 15.4131C14.038 16.2706 15.298 16.2706 16.0751 15.4131L17.9621 13.3312L21.0166 19.5097C21.8523 21.2001 21.0154 23.3059 19.3223 23.7729L14.6158 25.0711C12.9196 25.539 11.1312 25.3808 9.5242 24.621L4.28418 22.1432C3.30369 21.6796 2.66797 20.6159 2.66797 19.4389V11.4285C2.66797 10.3141 3.23864 9.29535 4.14207 8.79696L6.87519 7.2892C7.61575 6.88066 8.43236 6.66797 9.26033 6.66797H11.5019C13.1565 6.66797 14.6991 7.51334 15.6999 8.92258Z" stroke="#4F40FF" stroke-width="1.5" stroke-linecap="round" stroke-linejoin="round"/>
</svg>
