<svg width="49" height="48" viewBox="0 0 49 48" fill="none" xmlns="http://www.w3.org/2000/svg">
<path d="M31.4334 34.0665H40.25C42.4591 34.0665 44.25 32.0906 44.25 29.6532V17.1409C44.25 15.4692 43.394 13.9411 42.0389 13.1935L37.9392 10.9318C36.8283 10.319 35.6034 10 34.3615 10H30.095C27.6647 10 25.3662 11.2189 23.848 13.3127L23.7978 13.3819M23.7978 13.3819L19.919 18.7314C18.9689 20.0418 19.0637 21.931 20.1392 23.1177C21.305 24.4039 23.195 24.4039 24.3608 23.1177L27.1912 19.9948L31.7729 29.2626C33.0264 31.7982 31.7711 34.9569 29.2315 35.6574L22.1718 37.6047C19.6275 38.3065 16.9449 38.0693 14.5343 36.9295L6.67432 33.2128C5.20359 32.5174 4.25 30.9218 4.25 29.1564V17.1409C4.25 15.4692 5.10601 13.9411 6.46114 13.1935L10.5608 10.9318C11.6717 10.319 12.8966 10 14.1385 10H17.5009C19.9828 10 22.2967 11.2681 23.7978 13.3819Z" stroke="#4F40FF" stroke-width="2" stroke-linecap="round" stroke-linejoin="round"/>
</svg>
