<svg width="48" height="48" viewBox="0 0 48 48" fill="none" xmlns="http://www.w3.org/2000/svg">
<path d="M28.968 11.0711L33.2106 6.82843C34.7727 5.26633 37.3054 5.26633 38.8675 6.82843V6.82843C40.4296 8.39052 40.4296 10.9232 38.8675 12.4853L34.6248 16.7279" stroke="#4F40FF" stroke-width="2" stroke-linecap="round"/>
<path d="M28.9706 11.0724L16 24.043C15.2499 24.7931 14.8284 25.8105 14.8284 26.8714L14.8284 30.8714H18.8284C19.8893 30.8714 20.9067 30.45 21.6569 29.6998L34.6274 16.7293" stroke="#4F40FF" stroke-width="2" stroke-linecap="round"/>
<path d="M26.1406 8.24219L37.4543 19.5559" stroke="#4F40FF" stroke-width="2" stroke-linecap="round" stroke-linejoin="round"/>
<path d="M14 41C14 43.2091 12.6569 44 11 44C9.34315 44 8 43.2091 8 41C8 38.7909 11 36 11 36C11 36 14 38.7909 14 41Z" stroke="#4F40FF" stroke-width="2" stroke-linejoin="round"/>
</svg>
