<svg width="24" height="24" viewBox="0 0 24 24" fill="none" xmlns="http://www.w3.org/2000/svg">
<path d="M3 18H2.5H3ZM3 6H3.5H3ZM7 2V1.5V2ZM17 2V1.5V2ZM21 6H20.5H21ZM21 12.3431H21.5H21ZM11.3431 22V21.5V22ZM7 22V22.5V22ZM19.8284 15.1716L19.4749 14.818L19.8284 15.1716ZM14.1716 20.8284L14.5251 21.182H14.5251L14.1716 20.8284ZM13 18H12.5H13ZM17 14V13.5V14ZM8 6.5C7.72386 6.5 7.5 6.72386 7.5 7C7.5 7.27614 7.72386 7.5 8 7.5V6.5ZM16 7.5C16.2761 7.5 16.5 7.27614 16.5 7C16.5 6.72386 16.2761 6.5 16 6.5V7.5ZM8 11.5C7.72386 11.5 7.5 11.7239 7.5 12C7.5 12.2761 7.72386 12.5 8 12.5V11.5ZM12 12.5C12.2761 12.5 12.5 12.2761 12.5 12C12.5 11.7239 12.2761 11.5 12 11.5V12.5ZM3.5 18L3.5 6H2.5L2.5 18H3.5ZM7 2.5L17 2.5V1.5L7 1.5V2.5ZM20.5 6V12.3431H21.5V6H20.5ZM11.3431 21.5H7V22.5H11.3431V21.5ZM19.4749 14.818L13.818 20.4749L14.5251 21.182L20.182 15.5251L19.4749 14.818ZM11.3431 22.5C12.5366 22.5 13.6812 22.0259 14.5251 21.182L13.818 20.4749C13.1616 21.1313 12.2714 21.5 11.3431 21.5V22.5ZM20.5 12.3431C20.5 13.2714 20.1313 14.1616 19.4749 14.818L20.182 15.5251C21.0259 14.6812 21.5 13.5366 21.5 12.3431H20.5ZM3.5 6C3.5 4.067 5.067 2.5 7 2.5V1.5C4.51472 1.5 2.5 3.51472 2.5 6H3.5ZM2.5 18C2.5 20.4853 4.51472 22.5 7 22.5V21.5C5.067 21.5 3.5 19.933 3.5 18H2.5ZM17 2.5C18.933 2.5 20.5 4.067 20.5 6H21.5C21.5 3.51472 19.4853 1.5 17 1.5V2.5ZM13.5 22V18H12.5V22H13.5ZM17 14.5L21 14.5V13.5L17 13.5V14.5ZM13.5 18C13.5 16.067 15.067 14.5 17 14.5V13.5C14.5147 13.5 12.5 15.5147 12.5 18H13.5ZM8 7.5H16V6.5H8V7.5ZM8 12.5H12V11.5H8V12.5Z" fill="#4F40FF"/>
</svg>
