<svg width="32" height="32" viewBox="0 0 32 32" fill="none" xmlns="http://www.w3.org/2000/svg">
<path d="M11.2837 10.4846C11.4446 9.8089 12.0484 9.33203 12.7429 9.33203H19.2623C19.9568 9.33203 20.5606 9.8089 20.7215 10.4846L22.2294 16.8179C22.4538 17.7605 21.7391 18.6654 20.7702 18.6654H11.235C10.2661 18.6654 9.55138 17.7605 9.7758 16.8179L11.2837 10.4846Z" stroke="#4F40FF" stroke-width="2"/>
<path d="M4.61186 19.8205C4.77274 19.1448 5.37648 18.668 6.07107 18.668H12.5904C13.285 18.668 13.8887 19.1448 14.0496 19.8205L15.5575 26.1539C15.782 27.0964 15.0672 28.0013 14.0983 28.0013H4.56313C3.59422 28.0013 2.87951 27.0964 3.10393 26.1539L4.61186 19.8205Z" stroke="#4F40FF" stroke-width="2"/>
<path d="M17.9478 19.8205C18.1087 19.1448 18.7124 18.668 19.407 18.668H25.9263C26.6209 18.668 27.2246 19.1448 27.3855 19.8205L28.8935 26.1539C29.1179 27.0964 28.4032 28.0013 27.4343 28.0013H17.8991C16.9302 28.0013 16.2154 27.0964 16.4399 26.1539L17.9478 19.8205Z" stroke="#4F40FF" stroke-width="2"/>
<path d="M16 4V5.33333" stroke="#4F40FF" stroke-width="2" stroke-linecap="round" stroke-linejoin="round"/>
<path d="M23.9974 5.33203L22.6641 6.66536" stroke="#4F40FF" stroke-width="2" stroke-linecap="round" stroke-linejoin="round"/>
<path d="M8 5.33203L9.33333 6.66536" stroke="#4F40FF" stroke-width="2" stroke-linecap="round" stroke-linejoin="round"/>
</svg>
