<svg width="25" height="24" viewBox="0 0 25 24" fill="none" xmlns="http://www.w3.org/2000/svg">
<path d="M9.05631 8.15257C9.21719 7.47687 9.82093 7 10.5155 7H14.8126C15.5072 7 16.1109 7.47687 16.2718 8.15257L17.2242 12.1526C17.4486 13.0951 16.7339 14 15.765 14H9.56314C8.59423 14 7.87951 13.0951 8.10393 12.1526L9.05631 8.15257Z" stroke="#4F40FF" stroke-width="1.5"/>
<path d="M4.05631 15.1526C4.21719 14.4769 4.82093 14 5.51552 14H9.81261C10.5072 14 11.1109 14.4769 11.2718 15.1526L12.2242 19.1526C12.4486 20.0951 11.7339 21 10.765 21H4.56314C3.59423 21 2.87951 20.0951 3.10393 19.1526L4.05631 15.1526Z" stroke="#4F40FF" stroke-width="1.5"/>
<path d="M14.0563 15.1526C14.2172 14.4769 14.8209 14 15.5155 14H19.8126C20.5072 14 21.1109 14.4769 21.2718 15.1526L22.2242 19.1526C22.4486 20.0951 21.7339 21 20.765 21H14.5631C13.5942 21 12.8795 20.0951 13.1039 19.1526L14.0563 15.1526Z" stroke="#4F40FF" stroke-width="1.5"/>
<path d="M12.6641 3V4" stroke="#4F40FF" stroke-width="1.5" stroke-linecap="round" stroke-linejoin="round"/>
<path d="M18.6641 4L17.6641 5" stroke="#4F40FF" stroke-width="1.5" stroke-linecap="round" stroke-linejoin="round"/>
<path d="M6.66406 4L7.66406 5" stroke="#4F40FF" stroke-width="1.5" stroke-linecap="round" stroke-linejoin="round"/>
</svg>
