<svg width="32" height="32" viewBox="0 0 32 32" fill="none" xmlns="http://www.w3.org/2000/svg">
<path d="M22.1852 13.5057C21.1973 11.0602 18.8008 9.33464 16.0013 9.33464C12.3194 9.33464 9.33464 12.3194 9.33464 16.0013C9.33464 18.8008 11.0602 21.1973 13.5057 22.1852M15.8887 29.3342C8.57675 29.2737 2.66797 23.3275 2.66797 16.0013C2.66797 8.6375 8.6375 2.66797 16.0013 2.66797C23.3275 2.66797 29.2737 8.57675 29.3342 15.8887M16.0777 17.8994L19.5612 28.3499C19.9989 29.6629 21.856 29.6629 22.2937 28.3499L23.58 24.4909C23.7234 24.0608 24.0608 23.7234 24.4909 23.58L28.3499 22.2937C29.6629 21.856 29.6629 19.9989 28.3499 19.5612L17.8994 16.0777C16.7735 15.7024 15.7024 16.7735 16.0777 17.8994Z" stroke="#4F40FF" stroke-width="1.5" stroke-linecap="round" stroke-linejoin="round"/>
</svg>
