<svg width="32" height="32" viewBox="0 0 32 32" fill="none" xmlns="http://www.w3.org/2000/svg">
<path d="M8.0013 10.6667H5.33464C3.86188 10.6667 2.66797 11.8606 2.66797 13.3333V25.3333C2.66797 26.8061 3.86188 28 5.33464 28H8.0013C9.47406 28 10.668 26.8061 10.668 25.3333V13.3333C10.668 11.8606 9.47406 10.6667 8.0013 10.6667Z" stroke="#4F40FF" stroke-width="1.5" stroke-linecap="round" stroke-linejoin="round"/>
<path d="M21.1705 28H16.2828C15.2298 28 14.2005 27.6883 13.3244 27.1043L11.2617 25.7292C10.8908 25.4819 10.668 25.0656 10.668 24.6198V13.6874C10.668 13.4554 10.7285 13.2274 10.8436 13.0259L16.0013 4H17.7729C20.4352 4 22.0232 6.96715 20.5464 9.18233L18.668 12H25.9192C27.6541 12 28.927 13.6304 28.5063 15.3134L26.3446 23.9602C25.751 26.3344 23.6178 28 21.1705 28Z" stroke="#4F40FF" stroke-width="1.5" stroke-linecap="round" stroke-linejoin="round"/>
</svg>
