<svg width="30" height="18" viewBox="0 0 30 18" fill="none" xmlns="http://www.w3.org/2000/svg">
<path d="M12.3346 1H20.3346M12.3346 11.6667H20.3346M12.3346 6.33333H28.3346M12.3346 17H28.3346M4.33463 6.33333C2.86188 6.33333 1.66797 5.13943 1.66797 3.66667C1.66797 2.19391 2.86188 1 4.33464 1C5.80739 1 7.0013 2.19391 7.0013 3.66667C7.0013 5.13943 5.80739 6.33333 4.33463 6.33333ZM4.33463 17C2.86188 17 1.66797 15.8061 1.66797 14.3333C1.66797 12.8606 2.86188 11.6667 4.33464 11.6667C5.80739 11.6667 7.0013 12.8606 7.0013 14.3333C7.0013 15.8061 5.80739 17 4.33463 17Z" stroke="#4F40FF" stroke-width="1.5" stroke-linecap="round"/>
</svg>
