<svg width="32" height="32" viewBox="0 0 32 32" fill="none" xmlns="http://www.w3.org/2000/svg">
<path d="M10.6667 13.3346H21.3333M10.6667 18.668H21.3333M10.6667 24.0013H16M10.6667 5.33464C10.6667 6.80739 11.8606 8.0013 13.3333 8.0013H18.6667C20.1394 8.0013 21.3333 6.80739 21.3333 5.33464M10.6667 5.33464C10.6667 3.86188 11.8606 2.66797 13.3333 2.66797H18.6667C20.1394 2.66797 21.3333 3.86188 21.3333 5.33464M10.6667 5.33464H9.33333C6.38781 5.33464 4 7.72245 4 10.668V24.0013C4 26.9468 6.38781 29.3346 9.33333 29.3346H22.6667C25.6122 29.3346 28 26.9468 28 24.0013V10.668C28 7.72245 25.6122 5.33464 22.6667 5.33464H21.3333" stroke="#4F40FF" stroke-width="1.5" stroke-linecap="round"/>
</svg>
