<svg width="24" height="25" viewBox="0 0 24 25" fill="none" xmlns="http://www.w3.org/2000/svg">
<path d="M3 22.5V16.5C3 15.9477 3.44772 15.5 4 15.5H8C8.55228 15.5 9 15.9477 9 16.5V22.5" stroke="#EEBD5B" stroke-width="1.5" stroke-linejoin="round"/>
<path d="M15 22.5V18.5C15 17.9477 15.4477 17.5 16 17.5H20C20.5523 17.5 21 17.9477 21 18.5V22.5" stroke="#EEBD5B" stroke-width="1.5" stroke-linejoin="round"/>
<path d="M9 22.5V14.5C9 13.9477 9.44772 13.5 10 13.5H14C14.5523 13.5 15 13.9477 15 14.5V22.5" stroke="#EEBD5B" stroke-width="1.5" stroke-linejoin="round"/>
<path d="M2 22.5H22" stroke="#EEBD5B" stroke-width="1.5" stroke-linecap="round" stroke-linejoin="round"/>
<path d="M9.21885 10.5L12 9.04499L14.7812 10.5L14.16 7.57823L16.5 5.55573L13.335 5.20499L12 2.5L10.6651 5.20499L7.5 5.55573L9.84 7.57823L9.21885 10.5Z" stroke="#EEBD5B" stroke-width="1.5" stroke-linejoin="round"/>
</svg>
