<svg width="333" height="318" viewBox="0 0 333 318" fill="none" xmlns="http://www.w3.org/2000/svg">
<g opacity="0.2">
<path d="M100.568 226.551L49.25 279.084L90.2917 303.709L114.917 344.751L178.925 277.525" stroke="white" stroke-width="20" stroke-linecap="round" stroke-linejoin="round"/>
<path d="M215.074 277.525L279.083 344.751L303.708 303.709L344.749 279.084L293.431 226.551" stroke="white" stroke-width="20" stroke-linecap="round" stroke-linejoin="round"/>
<path d="M278.257 82.9083C323.135 127.786 323.135 200.547 278.257 245.425C233.379 290.303 160.618 290.303 115.74 245.425C70.8626 200.547 70.8626 127.786 115.74 82.9083C160.618 38.0306 233.379 38.0306 278.257 82.9083" stroke="white" stroke-width="20" stroke-linecap="round" stroke-linejoin="round"/>
<path fill-rule="evenodd" clip-rule="evenodd" d="M196.983 206.587L226.484 222.084C232.23 225.105 238.944 220.229 237.845 213.827L232.214 180.977L256.083 157.731C260.729 153.2 258.168 145.304 251.749 144.368L218.768 139.574L204.026 109.68C201.153 103.852 192.863 103.852 189.99 109.68L175.248 139.574L142.25 144.384C135.831 145.32 133.27 153.217 137.916 157.748L161.786 180.994L156.155 213.843C155.055 220.246 161.77 225.122 167.515 222.101L197.016 206.604H196.983V206.587Z" stroke="white" stroke-width="20" stroke-linecap="round" stroke-linejoin="round"/>
</g>
</svg>
