<svg width="32" height="32" viewBox="0 0 32 32" fill="none" xmlns="http://www.w3.org/2000/svg">
<path d="M11.9974 12.0013H12.0107M19.9974 20.0013H20.0107M21.3307 10.668L10.6641 21.3346M29.3307 16.0013C29.3307 23.3651 23.3612 29.3346 15.9974 29.3346C8.6336 29.3346 2.66406 23.3651 2.66406 16.0013C2.66406 8.63751 8.6336 2.66797 15.9974 2.66797C23.3612 2.66797 29.3307 8.63751 29.3307 16.0013ZM12.6641 12.0013C12.6641 12.3695 12.3656 12.668 11.9974 12.668C11.6292 12.668 11.3307 12.3695 11.3307 12.0013C11.3307 11.6331 11.6292 11.3346 11.9974 11.3346C12.3656 11.3346 12.6641 11.6331 12.6641 12.0013ZM20.6641 20.0013C20.6641 20.3695 20.3656 20.668 19.9974 20.668C19.6292 20.668 19.3307 20.3695 19.3307 20.0013C19.3307 19.6331 19.6292 19.3346 19.9974 19.3346C20.3656 19.3346 20.6641 19.6331 20.6641 20.0013Z" stroke="#4F40FF" stroke-width="2" stroke-linecap="round" stroke-linejoin="round"/>
</svg>
