<svg width="48" height="48" viewBox="0 0 48 48" fill="none" xmlns="http://www.w3.org/2000/svg">
<path d="M40 10V21" stroke="#4F40FF" stroke-width="2" stroke-linecap="round"/>
<path d="M33 14V13H31V14H33ZM17 14V13H15V14H17ZM24 4L24.3511 3.06367C24.1247 2.97878 23.8753 2.97878 23.6489 3.06367L24 4ZM8 10L7.64888 9.06367C7.25857 9.21003 7 9.58316 7 10C7 10.4168 7.25857 10.79 7.64888 10.9363L8 10ZM24 16L23.6489 16.9363C23.8753 17.0212 24.1247 17.0212 24.3511 16.9363L24 16ZM40 10L40.3511 10.9363C40.7414 10.79 41 10.4168 41 10C41 9.58316 40.7414 9.21003 40.3511 9.06367L40 10ZM25.4221 34.0117L24.711 33.3086L25.4221 34.0117ZM28.5991 30.7992L29.3101 31.5023L28.5991 30.7992ZM30.476 30.2883L30.7581 29.3289L30.476 30.2883ZM19.4009 30.7992L20.1119 30.096L19.4009 30.7992ZM22.5779 34.0117L23.289 33.3086L22.5779 34.0117ZM17.524 30.2883L17.2419 29.3289L17.524 30.2883ZM39 44C39 44.5523 39.4477 45 40 45C40.5523 45 41 44.5523 41 44H39ZM7 44C7 44.5523 7.44772 45 8 45C8.55228 45 9 44.5523 9 44H7ZM31 14V18H33V14H31ZM17 18V14H15V18H17ZM24 25C20.134 25 17 21.866 17 18H15C15 22.9706 19.0294 27 24 27V25ZM31 18C31 21.866 27.866 25 24 25V27C28.9706 27 33 22.9706 33 18H31ZM23.6489 3.06367L7.64888 9.06367L8.35112 10.9363L24.3511 4.93633L23.6489 3.06367ZM24.3511 16.9363L40.3511 10.9363L39.6489 9.06367L23.6489 15.0637L24.3511 16.9363ZM23.6489 4.93633L39.6489 10.9363L40.3511 9.06367L24.3511 3.06367L23.6489 4.93633ZM24.3511 15.0637L8.35112 9.06367L7.64888 10.9363L23.6489 16.9363L24.3511 15.0637ZM26.1331 34.7149L29.3101 31.5023L27.8881 30.096L24.711 33.3086L26.1331 34.7149ZM30.1939 31.2476C35.6279 32.8456 39 36.3239 39 40H41C41 35.0076 36.5446 31.0305 30.7581 29.3289L30.1939 31.2476ZM18.6899 31.5023L21.8669 34.7149L23.289 33.3086L20.1119 30.096L18.6899 31.5023ZM9 40C9 36.3239 12.3721 32.8456 17.8061 31.2476L17.2419 29.3289C11.4554 31.0305 7 35.0076 7 40H9ZM39 40V44H41V40H39ZM7 40V44H9V40H7ZM20.1119 30.096C19.3837 29.3597 18.2926 29.0199 17.2419 29.3289L17.8061 31.2476C18.0946 31.1628 18.4365 31.2461 18.6899 31.5023L20.1119 30.096ZM29.3101 31.5023C29.5635 31.2461 29.9054 31.1628 30.1939 31.2476L30.7581 29.3289C29.7074 29.0199 28.6163 29.3597 27.8881 30.096L29.3101 31.5023ZM24.711 33.3086C24.3196 33.7044 23.6804 33.7044 23.289 33.3086L21.8669 34.7149C23.0411 35.9022 24.9589 35.9022 26.1331 34.7149L24.711 33.3086Z" fill="#4F40FF"/>
</svg>
