<svg width="32" height="32" viewBox="0 0 32 32" fill="none" xmlns="http://www.w3.org/2000/svg">
<path d="M26.668 6.66797V14.0013" stroke="#4F40FF" stroke-width="1.5" stroke-linecap="round"/>
<path d="M22.082 9.33463V8.58463H20.582V9.33463H22.082ZM11.4154 9.33463V8.58463H9.91536V9.33463H11.4154ZM15.9987 2.66797L16.262 1.96572C16.0923 1.90205 15.9051 1.90205 15.7354 1.96572L15.9987 2.66797ZM5.33203 6.66797L5.06869 5.96572C4.77596 6.07549 4.58203 6.35533 4.58203 6.66797C4.58203 6.9806 4.77596 7.26044 5.06869 7.37022L5.33203 6.66797ZM15.9987 10.668L15.7354 11.3702C15.9051 11.4339 16.0923 11.4339 16.262 11.3702L15.9987 10.668ZM26.6654 6.66797L26.9287 7.37022C27.2214 7.26044 27.4154 6.9806 27.4154 6.66797C27.4154 6.35533 27.2214 6.07549 26.9287 5.96572L26.6654 6.66797ZM16.9467 22.6758L16.4135 22.1484H16.4135L16.9467 22.6758ZM19.0648 20.5341L19.598 21.0615H19.598L19.0648 20.5341ZM20.316 20.1935L20.5276 19.4739H20.5276L20.316 20.1935ZM12.9326 20.5341L13.4659 20.0067L12.9326 20.5341ZM15.0507 22.6758L15.5839 22.1484L15.0507 22.6758ZM11.6814 20.1935L11.4698 19.4739H11.4698L11.6814 20.1935ZM25.9154 29.3346C25.9154 29.7488 26.2512 30.0846 26.6654 30.0846C27.0796 30.0846 27.4154 29.7488 27.4154 29.3346H25.9154ZM4.58203 29.3346C4.58203 29.7488 4.91782 30.0846 5.33203 30.0846C5.74624 30.0846 6.08203 29.7488 6.08203 29.3346H4.58203ZM20.582 9.33463V12.0013H22.082V9.33463H20.582ZM11.4154 12.0013V9.33463H9.91536V12.0013H11.4154ZM15.9987 16.5846C13.4674 16.5846 11.4154 14.5326 11.4154 12.0013H9.91536C9.91536 15.361 12.639 18.0846 15.9987 18.0846V16.5846ZM20.582 12.0013C20.582 14.5326 18.53 16.5846 15.9987 16.5846V18.0846C19.3584 18.0846 22.082 15.361 22.082 12.0013H20.582ZM15.7354 1.96572L5.06869 5.96572L5.59537 7.37022L16.262 3.37022L15.7354 1.96572ZM16.262 11.3702L26.9287 7.37022L26.402 5.96572L15.7354 9.96572L16.262 11.3702ZM15.7354 3.37022L26.402 7.37022L26.9287 5.96572L16.262 1.96572L15.7354 3.37022ZM16.262 9.96572L5.59537 5.96572L5.06869 7.37022L15.7354 11.3702L16.262 9.96572ZM17.48 23.2032L19.598 21.0615L18.5315 20.0067L16.4135 22.1484L17.48 23.2032ZM20.1044 20.913C23.7124 21.974 25.9154 24.2721 25.9154 26.668H27.4154C27.4154 23.2848 24.4 20.6127 20.5276 19.4739L20.1044 20.913ZM12.3994 21.0615L14.5174 23.2032L15.5839 22.1484L13.4659 20.0067L12.3994 21.0615ZM6.08203 26.668C6.08203 24.2721 8.28495 21.974 11.893 20.913L11.4698 19.4739C7.59741 20.6127 4.58203 23.2848 4.58203 26.668H6.08203ZM25.9154 26.668V29.3346H27.4154V26.668H25.9154ZM4.58203 26.668V29.3346H6.08203V26.668H4.58203ZM13.4659 20.0067C12.9607 19.4958 12.202 19.2586 11.4698 19.4739L11.893 20.913C12.0535 20.8658 12.2502 20.9106 12.3994 21.0615L13.4659 20.0067ZM19.598 21.0615C19.7472 20.9106 19.9439 20.8658 20.1044 20.913L20.5276 19.4739C19.7954 19.2586 19.0367 19.4958 18.5315 20.0067L19.598 21.0615ZM16.4135 22.1484C16.1851 22.3793 15.8123 22.3793 15.5839 22.1484L14.5174 23.2032C15.3328 24.0277 16.6646 24.0277 17.48 23.2032L16.4135 22.1484Z" fill="#4F40FF"/>
</svg>
