<svg width="32" height="32" viewBox="0 0 32 32" fill="none" xmlns="http://www.w3.org/2000/svg">
<path d="M2.66797 28C3.33464 26.7879 5.86797 24.3636 10.668 24.3636C15.468 24.3636 18.0013 21.4545 18.668 20M10.668 10.6667V6.66667C10.668 5.19391 11.8619 4 13.3346 4H26.668C28.1407 4 29.3346 5.19391 29.3346 6.66667V17.3333C29.3346 18.8061 28.1407 20 26.668 20H22.3209M16.0013 9.33333H24.0013M13.3346 17.3333C13.3346 18.8061 12.1407 20 10.668 20C9.19521 20 8.0013 18.8061 8.0013 17.3333C8.0013 15.8606 9.19521 14.6667 10.668 14.6667C12.1407 14.6667 13.3346 15.8606 13.3346 17.3333Z" stroke="#4F40FF" stroke-width="1.5" stroke-linecap="round"/>
<path d="M20 14.668H24" stroke="#4F40FF" stroke-width="1.5" stroke-linecap="round"/>
</svg>
