<svg width="25" height="24" viewBox="0 0 25 24" fill="none" xmlns="http://www.w3.org/2000/svg">
<path d="M5.5 13H8.5M2.5 9L4.5 10L5.77064 6.18807C6.03292 5.40125 6.16405 5.00784 6.40729 4.71698C6.62208 4.46013 6.89792 4.26132 7.20951 4.13878C7.56236 4 7.97705 4 8.80643 4H16.1936C17.023 4 17.4376 4 17.7905 4.13878C18.1021 4.26132 18.3779 4.46013 18.5927 4.71698C18.8359 5.00784 18.9671 5.40125 19.2294 6.18807L20.5 10L22.5 9M16.5 13H19.5M7.3 10H17.7C19.3802 10 20.2202 10 20.862 10.327C21.4265 10.6146 21.8854 11.0735 22.173 11.638C22.5 12.2798 22.5 13.1198 22.5 14.8V17.5C22.5 17.9647 22.5 18.197 22.4616 18.3902C22.3038 19.1836 21.6836 19.8038 20.8902 19.9616C20.697 20 20.4647 20 20 20H19.5C18.3954 20 17.5 19.1046 17.5 18C17.5 17.7239 17.2761 17.5 17 17.5H8C7.72386 17.5 7.5 17.7239 7.5 18C7.5 19.1046 6.60457 20 5.5 20H5C4.53534 20 4.30302 20 4.10982 19.9616C3.31644 19.8038 2.69624 19.1836 2.53843 18.3902C2.5 18.197 2.5 17.9647 2.5 17.5V14.8C2.5 13.1198 2.5 12.2798 2.82698 11.638C3.1146 11.0735 3.57354 10.6146 4.13803 10.327C4.77976 10 5.61984 10 7.3 10Z" stroke="#4F40FF" stroke-width="1.5" stroke-linecap="round" stroke-linejoin="round"/>
</svg>
