<svg width="32" height="32" viewBox="0 0 32 32" fill="none" xmlns="http://www.w3.org/2000/svg">
<path d="M12.668 12.6667L19.3346 19.3333M14.668 4H17.3346C23.9621 4 29.3346 9.37258 29.3346 16C29.3346 22.6274 23.9621 28 17.3346 28H8.0013C5.05578 28 2.66797 25.6122 2.66797 22.6667V16C2.66797 9.37258 8.04055 4 14.668 4ZM21.3346 16C21.3346 18.9455 18.9468 21.3333 16.0013 21.3333C13.0558 21.3333 10.668 18.9455 10.668 16C10.668 13.0545 13.0558 10.6667 16.0013 10.6667C18.9468 10.6667 21.3346 13.0545 21.3346 16Z" stroke="#4F40FF" stroke-width="1.5" stroke-linecap="round" stroke-linejoin="round"/>
</svg>
