<svg width="32" height="32" viewBox="0 0 32 32" fill="none" xmlns="http://www.w3.org/2000/svg">
<path d="M23.1647 10.897C26.7994 12.5293 29.3346 16.2149 29.3346 20.5V25C29.3346 26.6569 28.0081 28 26.3717 28H17.4828C13.6125 28 10.3199 25.4956 9.09969 22M23.1647 10.897C22.2294 6.94088 18.7138 4 14.5198 4H13.0383C7.31094 4 2.66797 8.70101 2.66797 14.5V19C2.66797 20.6569 3.99453 22 5.63093 22H9.09969M23.1647 10.897C23.3242 11.5717 23.4087 12.2758 23.4087 13C23.4087 17.9706 19.429 22 14.5198 22H9.09969" stroke="#4F40FF" stroke-width="1.5" stroke-linejoin="round"/>
</svg>
