<svg width="25" height="24" viewBox="0 0 25 24" fill="none" xmlns="http://www.w3.org/2000/svg">
<path d="M2.5 8H4.5L10.7622 10.7397C11.7241 11.1605 12.1664 12.2784 11.7528 13.2434V13.2434C11.337 14.2136 10.2136 14.663 9.24342 14.2472L7.5 13.5" stroke="#4F40FF" stroke-width="1.5" stroke-linecap="round" stroke-linejoin="round"/>
<path d="M2.83541 16.3292C2.46493 16.1439 2.01442 16.2941 1.82918 16.6646C1.64394 17.0351 1.79411 17.4856 2.16459 17.6708L2.83541 16.3292ZM11.8354 13.3292L11.1646 12.9938L10.4938 14.3354L11.1646 14.6708L11.8354 13.3292ZM14.2331 15.3666L13.8977 16.0374L14.2331 15.3666ZM16.9164 16.75H18.5V15.25H16.9164V16.75ZM18.5 19.25H10.3885V20.75H18.5V19.25ZM7.14625 18.4846L2.83541 16.3292L2.16459 17.6708L6.47542 19.8262L7.14625 18.4846ZM14.5685 14.6957L11.8354 13.3292L11.1646 14.6708L13.8977 16.0374L14.5685 14.6957ZM10.3885 19.25C9.26302 19.25 8.15295 18.9879 7.14625 18.4846L6.47542 19.8262C7.69041 20.4337 9.03015 20.75 10.3885 20.75V19.25ZM19.75 18C19.75 18.6904 19.1904 19.25 18.5 19.25V20.75C20.0188 20.75 21.25 19.5188 21.25 18H19.75ZM18.5 16.75C19.1904 16.75 19.75 17.3096 19.75 18H21.25C21.25 16.4812 20.0188 15.25 18.5 15.25V16.75ZM16.9164 15.25C16.1014 15.25 15.2975 15.0602 14.5685 14.6957L13.8977 16.0374C14.835 16.506 15.8685 16.75 16.9164 16.75V15.25Z" fill="#4F40FF"/>
<circle cx="18.5" cy="8" r="4" stroke="#4F40FF" stroke-width="1.5"/>
</svg>
