<svg width="49" height="48" viewBox="0 0 49 48" fill="none" xmlns="http://www.w3.org/2000/svg">
<path d="M4.25 16H8.25L22.4314 22.2044C23.438 22.6447 23.9009 23.8147 23.4681 24.8245L22.0378 28.1617C21.6027 29.177 20.427 29.6473 19.4117 29.2122L14.25 27" stroke="#4F40FF" stroke-width="2" stroke-linecap="round" stroke-linejoin="round"/>
<path d="M4.69721 33.1056C4.20324 32.8586 3.60256 33.0588 3.35557 33.5528C3.10858 34.0468 3.30881 34.6474 3.80279 34.8944L4.69721 33.1056ZM22.6972 27.1056L21.8028 26.6584L20.9084 28.4472L21.8028 28.8944L22.6972 27.1056ZM28.9831 31.3666L29.4303 30.4721L28.9831 31.3666ZM31.6664 33H38.25V31H31.6664V33ZM39.25 34V38H41.25V34H39.25ZM38.25 39H18.1385V41H38.25V39ZM15.008 38.261L4.69721 33.1056L3.80279 34.8944L14.1136 40.0498L15.008 38.261ZM29.4303 30.4721L22.6972 27.1056L21.8028 28.8944L28.5359 32.261L29.4303 30.4721ZM18.1385 39C17.0518 39 15.98 38.747 15.008 38.261L14.1136 40.0498C15.3633 40.6747 16.7413 41 18.1385 41V39ZM39.25 38C39.25 38.5523 38.8023 39 38.25 39V41C39.9069 41 41.25 39.6569 41.25 38H39.25ZM38.25 33C38.8023 33 39.25 33.4477 39.25 34H41.25C41.25 32.3431 39.9069 31 38.25 31V33ZM31.6664 31C30.8902 31 30.1246 30.8193 29.4303 30.4721L28.5359 32.261C29.5079 32.747 30.5797 33 31.6664 33V31Z" fill="#4F40FF"/>
<path d="M25.1265 16.5957L32.6883 26.0478C33.4889 27.0486 35.0111 27.0486 35.8117 26.0478L43.3735 16.5957C43.9409 15.8864 44.25 15.0052 44.25 14.0969V12C44.25 9.79086 42.4591 8 40.25 8H38.3519C37.3262 8 36.3426 8.40745 35.6173 9.13271C34.8622 9.88784 33.6378 9.88784 32.8827 9.1327C32.1574 8.40745 31.1738 8 30.1481 8H28.25C26.0409 8 24.25 9.79086 24.25 12V14.0969C24.25 15.0052 24.5591 15.8864 25.1265 16.5957Z" stroke="#4F40FF" stroke-width="2" stroke-linejoin="round"/>
</svg>
