<svg width="48" height="48" viewBox="0 0 48 48" fill="none" xmlns="http://www.w3.org/2000/svg">
<path d="M0.5 10C0.5 4.75329 4.75329 0.5 10 0.5H38C43.2467 0.5 47.5 4.75329 47.5 10V38C47.5 43.2467 43.2467 47.5 38 47.5H10C4.75329 47.5 0.5 43.2467 0.5 38V10Z" fill="white"/>
<path d="M0.5 10C0.5 4.75329 4.75329 0.5 10 0.5H38C43.2467 0.5 47.5 4.75329 47.5 10V38C47.5 43.2467 43.2467 47.5 38 47.5H10C4.75329 47.5 0.5 43.2467 0.5 38V10Z" stroke="#BEE14A"/>
<path d="M17 25L20.5264 27.8211C21.3537 28.483 22.5536 28.3848 23.2624 27.5973L31 19" stroke="#BEE14A" stroke-width="1.5" stroke-linecap="round" stroke-linejoin="round"/>
</svg>
