<svg width="32" height="32" viewBox="0 0 32 32" fill="none" xmlns="http://www.w3.org/2000/svg">
<path d="M13.3346 8H21.3346M13.3346 18.6667H21.3346M13.3346 13.3333H29.3346M13.3346 24H29.3346M5.33463 13.3333C3.86188 13.3333 2.66797 12.1394 2.66797 10.6667C2.66797 9.19391 3.86188 8 5.33464 8C6.80739 8 8.0013 9.19391 8.0013 10.6667C8.0013 12.1394 6.80739 13.3333 5.33463 13.3333ZM5.33463 24C3.86188 24 2.66797 22.8061 2.66797 21.3333C2.66797 19.8606 3.86188 18.6667 5.33464 18.6667C6.80739 18.6667 8.0013 19.8606 8.0013 21.3333C8.0013 22.8061 6.80739 24 5.33463 24Z" stroke="#4F40FF" stroke-width="1.5" stroke-linecap="round"/>
</svg>
