<svg width="48" height="48" viewBox="0 0 48 48" fill="none" xmlns="http://www.w3.org/2000/svg">
<path d="M14.1392 12.4453C10.8558 13.4327 7.35225 15.8423 5.4443 17.2849C4.51075 17.9908 4 19.1042 4 20.2746V39.6134C4 41.3203 6.0558 42.3101 7.47254 41.3581C9.8915 39.7325 13.1774 37.8867 16 37.5707C22.6366 36.8279 25.3634 44.6938 32 43.9509C35.7346 43.5329 40.2801 40.4367 42.5557 38.716C43.4893 38.0102 44 36.8967 44 35.7263V16.3875C44 14.6806 41.9442 13.6908 40.5275 14.6429C38.437 16.0476 35.6992 17.6169 33.1724 18.2212" stroke="#4F40FF" stroke-width="2"/>
<path d="M34 13.6C34 18.9019 29 28 24 28C19 28 14 18.9019 14 13.6C14 8.29807 18.4772 4 24 4C29.5228 4 34 8.29807 34 13.6Z" stroke="#4F40FF" stroke-width="2"/>
<path d="M27 13C27 14.6569 25.6569 16 24 16C22.3431 16 21 14.6569 21 13C21 11.3431 22.3431 10 24 10C25.6569 10 27 11.3431 27 13Z" stroke="#4F40FF" stroke-width="2"/>
</svg>
