<svg width="25" height="24" viewBox="0 0 25 24" fill="none" xmlns="http://www.w3.org/2000/svg">
<path d="M14.3359 12.75C14.3359 11.7835 13.4405 11 12.3359 11C11.2314 11 10.3359 11.7835 10.3359 12.75C10.3359 13.7165 11.2314 14.5 12.3359 14.5C13.4405 14.5 14.3359 15.2835 14.3359 16.25C14.3359 17.2165 13.4405 18 12.3359 18C11.2314 18 10.3359 17.2165 10.3359 16.25" stroke="#4F40FF" stroke-width="1.5" stroke-linecap="round"/>
<path d="M12.3359 9.5V11" stroke="#4F40FF" stroke-width="1.5" stroke-linecap="round" stroke-linejoin="round"/>
<path d="M12.3359 18V19.5" stroke="#4F40FF" stroke-width="1.5" stroke-linecap="round" stroke-linejoin="round"/>
<path d="M5.96839 11.1026C6.78508 8.65258 9.07791 7 11.6605 7H13.0114C15.594 7 17.8868 8.65258 18.7035 11.1026L19.7035 14.1026C20.9985 17.9878 18.1067 22 14.0114 22H10.6605C6.56515 22 3.67333 17.9878 4.96839 14.1026L5.96839 11.1026Z" stroke="#4F40FF" stroke-width="1.5" stroke-linejoin="round"/>
<path d="M14.4218 7L10.25 7L8.84897 5.39296C7.47553 3.81763 9.07779 1.46298 11.083 2.10985L12.0108 2.40914C12.222 2.47728 12.4499 2.47728 12.6611 2.40914L13.5889 2.10985C15.5941 1.46298 17.1963 3.81763 15.8229 5.39296L14.4218 7Z" stroke="#4F40FF" stroke-width="1.5" stroke-linejoin="round"/>
</svg>
