<svg width="49" height="48" viewBox="0 0 49 48" fill="none" xmlns="http://www.w3.org/2000/svg">
<path d="M24.25 12.1067V40.605M10.25 16.5093C12.7816 16.9013 15.6056 17.5531 18.25 18.5758M10.25 24.5093C11.529 24.7074 12.8826 24.9717 14.25 25.3167M8.23866 6.02254C12.6754 6.52389 18.6363 7.87264 22.8836 10.8489C23.7 11.4209 24.8 11.4209 25.6164 10.8489C29.8637 7.87264 35.8246 6.52389 40.2613 6.02254C42.4572 5.77442 44.25 7.60805 44.25 9.87036V32.3999C44.25 34.6622 42.4572 36.4965 40.2613 36.7446C35.8246 37.246 29.8637 38.5947 25.6164 41.571C24.8 42.143 23.7 42.143 22.8836 41.571C18.6363 38.5947 12.6754 37.246 8.23866 36.7446C6.04285 36.4965 4.25 34.6622 4.25 32.3999V9.87036C4.25 7.60805 6.04285 5.77442 8.23866 6.02254Z" stroke="#4F40FF" stroke-width="2" stroke-linecap="round"/>
</svg>
