<svg width="48" height="48" viewBox="0 0 48 48" fill="none" xmlns="http://www.w3.org/2000/svg">
<path d="M34 32V41.0459C34 42.4609 32.5709 43.4284 31.2572 42.9029L24.7428 40.2971C24.266 40.1064 23.734 40.1064 23.2572 40.2971L16.7428 42.9029C15.4291 43.4284 14 42.4609 14 41.0459V32" stroke="white" stroke-width="3" stroke-linejoin="round"/>
<path d="M21.1846 5.0369C22.8069 3.65437 25.1931 3.65437 26.8154 5.0369L28.246 6.25605C28.9412 6.8485 29.8056 7.20654 30.7161 7.2792L32.5897 7.42872C34.7145 7.59828 36.4017 9.28551 36.5713 11.4103L36.7208 13.2839C36.7935 14.1944 37.1515 15.0588 37.7439 15.754L38.9631 17.1846C40.3456 18.8069 40.3456 21.1931 38.9631 22.8154L37.7439 24.246C37.1515 24.9412 36.7935 25.8056 36.7208 26.7161L36.5713 28.5897C36.4017 30.7145 34.7145 32.4017 32.5897 32.5713L30.7161 32.7208C29.8056 32.7935 28.9412 33.1515 28.246 33.7439L26.8154 34.9631C25.1931 36.3456 22.8069 36.3456 21.1846 34.9631L19.754 33.7439C19.0588 33.1515 18.1944 32.7935 17.2839 32.7208L15.4103 32.5713C13.2855 32.4017 11.5983 30.7145 11.4287 28.5897L11.2792 26.7161C11.2065 25.8056 10.8485 24.9412 10.2561 24.246L9.0369 22.8154C7.65437 21.1931 7.65437 18.8069 9.0369 17.1846L10.2561 15.754C10.8485 15.0588 11.2065 14.1944 11.2792 13.2839L11.4287 11.4103C11.5983 9.28551 13.2855 7.59828 15.4103 7.42872L17.2839 7.2792C18.1944 7.20654 19.0588 6.8485 19.754 6.25605L21.1846 5.0369Z" stroke="white" stroke-width="3"/>
</svg>
