<svg width="24" height="24" viewBox="0 0 24 24" fill="none" xmlns="http://www.w3.org/2000/svg">
<path d="M15 16C15 16 13.875 15 12 15C10.125 15 9 16 9 16M17 10C17 10.5523 16.5523 11 16 11C15.4477 11 15 10.5523 15 10C15 9.44772 15.4477 9 16 9C16.5523 9 17 9.44772 17 10ZM9 10C9 10.5523 8.55228 11 8 11C7.44772 11 7 10.5523 7 10C7 9.44772 7.44772 9 8 9C8.55228 9 9 9.44772 9 10ZM22 12C22 17.5228 17.5228 22 12 22C6.47715 22 2 17.5228 2 12C2 6.47715 6.47715 2 12 2C17.5228 2 22 6.47715 22 12Z" stroke="#4F40FF" stroke-linecap="round"/>
</svg>
