<svg width="32" height="32" viewBox="0 0 32 32" fill="none" xmlns="http://www.w3.org/2000/svg">
<path d="M13.3784 4.36318C14.4513 2.1029 17.5513 2.1029 18.6242 4.36318L20.4785 8.26954C20.9045 9.1671 21.7281 9.78922 22.6808 9.93315L26.8271 10.5596C29.2262 10.922 30.1841 13.9874 28.4481 15.7467L25.4479 18.7874C24.7585 19.4861 24.4439 20.4927 24.6066 21.4792L25.3149 25.7727C25.7247 28.257 23.2168 30.1515 21.071 28.9786L17.3624 26.9514C16.5103 26.4857 15.4923 26.4857 14.6402 26.9514L10.9317 28.9786C8.78582 30.1515 6.27787 28.257 6.68768 25.7727L7.39595 21.4792C7.55869 20.4927 7.24412 19.4861 6.55475 18.7874L3.55447 15.7467C1.81846 13.9874 2.77641 10.922 5.17552 10.5596L9.3218 9.93315C10.2745 9.78922 11.0981 9.1671 11.5241 8.26954L13.3784 4.36318Z" stroke="#4F40FF" stroke-width="1.5" stroke-linejoin="round"/>
</svg>
