<svg width="32" height="32" viewBox="0 0 32 32" fill="none" xmlns="http://www.w3.org/2000/svg">
<circle cx="15.9987" cy="15.9987" r="2.66667" fill="#4F40FF"/>
<path d="M16.0013 16.0013L29.3346 2.66797M24.0013 16.0013C24.0013 20.4196 20.4196 24.0013 16.0013 24.0013C11.583 24.0013 8.0013 20.4196 8.0013 16.0013C8.0013 11.583 11.583 8.0013 16.0013 8.0013C20.4196 8.0013 24.0013 11.583 24.0013 16.0013ZM29.3346 16.0013C29.3346 23.3651 23.3651 29.3346 16.0013 29.3346C8.6375 29.3346 2.66797 23.3651 2.66797 16.0013C2.66797 8.6375 8.6375 2.66797 16.0013 2.66797C23.3651 2.66797 29.3346 8.6375 29.3346 16.0013Z" stroke="#4F40FF" stroke-width="1.5" stroke-linecap="round"/>
</svg>
