<svg width="20" height="20" viewBox="0 0 20 20" fill="none" xmlns="http://www.w3.org/2000/svg">
<path d="M2.5 14.9974H1.75H2.5ZM2.5 4.9974H3.25H2.5ZM5.83333 1.66406V0.914062V1.66406ZM14.1667 1.66406V0.914063V1.66406ZM17.5 4.9974H16.75H17.5ZM17.5 10.2834H18.25H17.5ZM9.45262 18.3307V17.5807V18.3307ZM5.83333 18.3307V19.0807V18.3307ZM16.5237 12.6404L15.9934 12.11L16.5237 12.6404ZM11.8096 17.3544L12.34 17.8847H12.34L11.8096 17.3544ZM10.8333 14.9974H10.0833H10.8333ZM14.1667 11.6641V10.9141V11.6641ZM6.96967 6.96707C6.67678 7.25996 6.67678 7.73483 6.96967 8.02773C7.26256 8.32062 7.73744 8.32062 8.03033 8.02773L7.5 7.4974L6.96967 6.96707ZM8.82149 6.17591L9.35182 6.70624L8.82149 6.17591ZM11.1785 6.17591L10.6482 6.70624L10.6482 6.70624L11.1785 6.17591ZM11.9697 8.02773C12.2626 8.32062 12.7374 8.32062 13.0303 8.02773C13.3232 7.73483 13.3232 7.25996 13.0303 6.96707L12.5 7.4974L11.9697 8.02773ZM10.75 5.83073C10.75 5.41652 10.4142 5.08073 10 5.08073C9.58579 5.08073 9.25 5.41652 9.25 5.83073H10H10.75ZM9.25 9.9974C9.25 10.4116 9.58579 10.7474 10 10.7474C10.4142 10.7474 10.75 10.4116 10.75 9.9974H10H9.25ZM2.5 14.9974H3.25L3.25 4.9974H2.5H1.75L1.75 14.9974H2.5ZM5.83333 1.66406V2.41406L14.1667 2.41406V1.66406V0.914063L5.83333 0.914062V1.66406ZM17.5 4.9974H16.75V10.2834H17.5H18.25V4.9974H17.5ZM9.45262 18.3307V17.5807H5.83333V18.3307V19.0807H9.45262V18.3307ZM16.5237 12.6404L15.9934 12.11L11.2793 16.8241L11.8096 17.3544L12.34 17.8847L17.054 13.1707L16.5237 12.6404ZM9.45262 18.3307V19.0807C10.5356 19.0807 11.5742 18.6505 12.34 17.8847L11.8096 17.3544L11.2793 16.8241C10.7948 17.3086 10.1378 17.5807 9.45262 17.5807V18.3307ZM17.5 10.2834H16.75C16.75 10.9685 16.4778 11.6256 15.9934 12.11L16.5237 12.6404L17.054 13.1707C17.8198 12.4049 18.25 11.3663 18.25 10.2834H17.5ZM2.5 4.9974H3.25C3.25 3.57066 4.4066 2.41406 5.83333 2.41406V1.66406V0.914062C3.57817 0.914062 1.75 2.74223 1.75 4.9974H2.5ZM2.5 14.9974H1.75C1.75 17.2526 3.57817 19.0807 5.83333 19.0807V18.3307V17.5807C4.4066 17.5807 3.25 16.4241 3.25 14.9974H2.5ZM14.1667 1.66406V2.41406C15.5934 2.41406 16.75 3.57066 16.75 4.9974H17.5H18.25C18.25 2.74223 16.4218 0.914063 14.1667 0.914063V1.66406ZM10.8333 18.3307H11.5833V14.9974H10.8333H10.0833V18.3307H10.8333ZM14.1667 11.6641V12.4141L17.5 12.4141L17.5 11.6641V10.9141L14.1667 10.9141V11.6641ZM10.8333 14.9974H11.5833C11.5833 13.5707 12.7399 12.4141 14.1667 12.4141V11.6641V10.9141C11.9115 10.9141 10.0833 12.7422 10.0833 14.9974H10.8333ZM7.5 7.4974L8.03033 8.02773L9.35182 6.70624L8.82149 6.17591L8.29116 5.64558L6.96967 6.96707L7.5 7.4974ZM11.1785 6.17591L10.6482 6.70624L11.9697 8.02773L12.5 7.4974L13.0303 6.96707L11.7088 5.64558L11.1785 6.17591ZM10 5.83073H9.25V9.9974H10H10.75V5.83073H10ZM8.82149 6.17591L9.35182 6.70624C9.7098 6.34826 10.2902 6.34826 10.6482 6.70624L11.1785 6.17591L11.7088 5.64558C10.7651 4.70181 9.23492 4.70181 8.29116 5.64558L8.82149 6.17591Z" fill="#4F40FF"/>
</svg>
