<svg width="16" height="16" viewBox="0 0 16 16" fill="none" xmlns="http://www.w3.org/2000/svg">
<path d="M5.33333 4.66536H8M5.33333 7.33203H10.6667M5.33333 9.9987H10.6667M3.33333 1.33203H12.6667C13.403 1.33203 14 1.92898 14 2.66536V12.7683C14 13.6917 13.0839 14.3356 12.215 14.0228L11.1739 13.648C10.8485 13.5308 10.4904 13.5447 10.1751 13.6866L8.54715 14.4191C8.19919 14.5757 7.80081 14.5757 7.45285 14.4191L5.82492 13.6866C5.50959 13.5447 5.15148 13.5308 4.82614 13.648L3.78496 14.0228C2.91608 14.3356 2 13.6917 2 12.7683V2.66536C2 1.92899 2.59695 1.33203 3.33333 1.33203Z" stroke="#626884" stroke-linecap="round"/>
</svg>
