<svg width="16" height="16" viewBox="0 0 16 16" fill="none" xmlns="http://www.w3.org/2000/svg">
<path d="M6.66927 4H10.6693M6.66927 9.33333H10.6693M6.66927 6.66667H14.6693M6.66927 12H14.6693M2.0026 6.66667H3.33594C3.70413 6.66667 4.0026 6.36819 4.0026 6V4.66667C4.0026 4.29848 3.70413 4 3.33594 4H2.0026C1.63441 4 1.33594 4.29848 1.33594 4.66667V6C1.33594 6.36819 1.63441 6.66667 2.0026 6.66667ZM2.0026 12H3.33594C3.70413 12 4.0026 11.7015 4.0026 11.3333V10C4.0026 9.63181 3.70413 9.33333 3.33594 9.33333H2.0026C1.63441 9.33333 1.33594 9.63181 1.33594 10V11.3333C1.33594 11.7015 1.63441 12 2.0026 12Z" stroke="#626884" stroke-linecap="round"/>
</svg>
