<svg width="20" height="20" viewBox="0 0 20 20" fill="none" xmlns="http://www.w3.org/2000/svg">
<path d="M17.5 8.33464V6.2513C17.5 4.41035 16.0076 2.91797 14.1667 2.91797H5.83333C3.99238 2.91797 2.5 4.41035 2.5 6.2513V15.0013C2.5 16.8423 3.99238 18.3346 5.83333 18.3346H7.5M6.66667 1.66797V4.16797M13.3333 7.5013H6.66667M11.6667 10.8346H6.66667M8.33333 14.168H6.66667M13.3333 1.66797V4.16797M10 18.3346L12.5506 17.6075C12.6874 17.5685 12.8119 17.4953 12.9125 17.3947L17.0915 13.2157C17.6362 12.671 17.6362 11.7879 17.0915 11.2432C16.5468 10.6985 15.6636 10.6985 15.1189 11.2432L10.9399 15.4222C10.8394 15.5227 10.7661 15.6473 10.7271 15.784L10 18.3346Z" stroke="#626884" stroke-linecap="round"/>
</svg>
