<svg width="20" height="20" viewBox="0 0 20 20" fill="none" xmlns="http://www.w3.org/2000/svg">
<path d="M6.66406 15.0013H13.3307M6.66406 15.0013C6.66406 16.8423 8.15645 18.3346 9.9974 18.3346C11.8383 18.3346 13.3307 16.8423 13.3307 15.0013M6.66406 15.0013V13.1586C6.66406 12.6137 6.38622 12.1149 5.99034 11.7406C4.86574 10.6772 4.16406 9.1712 4.16406 7.5013C4.16406 4.27964 6.77573 1.66797 9.9974 1.66797C13.2191 1.66797 15.8307 4.27964 15.8307 7.5013C15.8307 9.1712 15.1291 10.6772 14.0045 11.7406C13.6086 12.1149 13.3307 12.6137 13.3307 13.1586V15.0013M8.33073 7.5013L9.9974 9.16797M9.9974 9.16797L11.6641 7.5013M9.9974 9.16797V15.0013" stroke="#626884" stroke-linecap="round" stroke-linejoin="round"/>
</svg>
