<svg width="16" height="16" viewBox="0 0 16 16" fill="none" xmlns="http://www.w3.org/2000/svg">
<path d="M12.0026 10V14M3.33594 5.50309C4.17979 5.63378 5.12112 5.85105 6.0026 6.19192M3.33594 8.16976C3.76226 8.23578 4.21347 8.32391 4.66927 8.4389M8.0026 4.03558V14C7.84291 14 7.68321 13.9523 7.54715 13.857C6.13136 12.8649 4.14441 12.4153 2.66549 12.2482C1.93355 12.1655 1.33594 11.5541 1.33594 10.8V3.29012C1.33594 2.53602 1.93355 1.92481 2.66549 2.00751C4.14441 2.17463 6.13136 2.62421 7.54715 3.6163C7.81926 3.80697 8.18595 3.80697 8.45805 3.6163C9.87385 2.62421 11.8608 2.17463 13.3397 2.00751C14.0717 1.92481 14.6693 2.53602 14.6693 3.29012V9.33333M14.0026 12H10.0026" stroke="#626884" stroke-linecap="round" stroke-linejoin="round"/>
</svg>
