<svg width="16" height="16" viewBox="0 0 16 16" fill="none" xmlns="http://www.w3.org/2000/svg">
<path d="M13.8293 10.4804L13.4029 10.2193V10.2193L13.8293 10.4804ZM13.1929 11.5196L13.6193 11.7807V11.7807L13.1929 11.5196ZM2.17073 5.51961L1.74432 5.2585L1.74432 5.2585L2.17073 5.51961ZM2.80709 4.48038L3.2335 4.74149L2.80709 4.48038ZM4.54568 4.04115L4.78473 3.602L4.78473 3.602L4.54568 4.04115ZM2.63658 7.15884L2.39752 7.59799H2.39753L2.63658 7.15884ZM11.4543 11.9588L11.2153 12.398H11.2153L11.4543 11.9588ZM13.3634 8.84115L13.1244 9.2803L13.3634 8.84115ZM2.80709 11.5196L2.38069 11.7807H2.38069L2.80709 11.5196ZM2.17073 10.4804L2.59713 10.2193H2.59713L2.17073 10.4804ZM13.1929 4.48039L13.6193 4.21928V4.21928L13.1929 4.48039ZM13.8293 5.51962L13.4029 5.78073V5.78073L13.8293 5.51962ZM13.3634 7.15885L13.6025 7.598L13.3634 7.15885ZM11.4543 4.04116L11.6934 4.48031L11.4543 4.04116ZM2.63658 8.84116L2.87563 9.28031H2.87563L2.63658 8.84116ZM4.54568 11.9588L4.30662 11.5197L4.30662 11.5197L4.54568 11.9588ZM11.3867 4.07798L11.1476 3.63883V3.63883L11.3867 4.07798ZM4.61333 4.07798L4.37428 4.51713H4.37428L4.61333 4.07798ZM11.3867 11.922L11.6257 11.4829L11.6257 11.4829L11.3867 11.922ZM4.61333 11.922L4.85239 12.3612L4.85239 12.3612L4.61333 11.922ZM7.36363 2.5H8.63637V1.5H7.36363V2.5ZM8.63637 13.5H7.36363V14.5H8.63637V13.5ZM7.36363 13.5C6.90874 13.5 6.5909 13.1593 6.5909 12.8H5.5909C5.5909 13.7662 6.41271 14.5 7.36363 14.5V13.5ZM9.4091 12.8C9.4091 13.1593 9.09126 13.5 8.63637 13.5V14.5C9.58729 14.5 10.4091 13.7662 10.4091 12.8H9.4091ZM8.63637 2.5C9.09126 2.5 9.4091 2.84071 9.4091 3.2H10.4091C10.4091 2.2338 9.58729 1.5 8.63637 1.5V2.5ZM7.36363 1.5C6.41271 1.5 5.5909 2.2338 5.5909 3.2H6.5909C6.5909 2.84071 6.90874 2.5 7.36363 2.5V1.5ZM13.4029 10.2193L12.7665 11.2585L13.6193 11.7807L14.2557 10.7415L13.4029 10.2193ZM2.59713 5.78072L3.2335 4.74149L2.38069 4.21927L1.74432 5.2585L2.59713 5.78072ZM3.2335 4.74149C3.43926 4.40547 3.92036 4.27004 4.30662 4.4803L4.78473 3.602C3.95351 3.14952 2.87784 3.40739 2.38069 4.21927L3.2335 4.74149ZM2.87563 6.71969C2.50497 6.51792 2.40287 6.09797 2.59713 5.78072L1.74432 5.2585C1.23568 6.08915 1.55071 7.13702 2.39752 7.59799L2.87563 6.71969ZM12.7665 11.2585C12.5607 11.5945 12.0796 11.73 11.6934 11.5197L11.2153 12.398C12.0465 12.8505 13.1222 12.5926 13.6193 11.7807L12.7665 11.2585ZM14.2557 10.7415C14.7643 9.91084 14.4493 8.86297 13.6025 8.402L13.1244 9.2803C13.495 9.48207 13.5971 9.90202 13.4029 10.2193L14.2557 10.7415ZM3.2335 11.2585L2.59713 10.2193L1.74432 10.7415L2.38069 11.7807L3.2335 11.2585ZM12.7665 4.7415L13.4029 5.78073L14.2557 5.25851L13.6193 4.21928L12.7665 4.7415ZM13.4029 5.78073C13.5971 6.09798 13.495 6.51793 13.1244 6.7197L13.6025 7.598C14.4493 7.13703 14.7643 6.08916 14.2557 5.25851L13.4029 5.78073ZM11.6934 4.48031C12.0796 4.27005 12.5607 4.40548 12.7665 4.7415L13.6193 4.21928C13.1222 3.4074 12.0465 3.14953 11.2153 3.60201L11.6934 4.48031ZM2.59713 10.2193C2.40286 9.90203 2.50497 9.48208 2.87563 9.28031L2.39752 8.40201C1.55071 8.86298 1.23568 9.91085 1.74432 10.7415L2.59713 10.2193ZM2.38069 11.7807C2.87784 12.5926 3.95351 12.8505 4.78473 12.398L4.30662 11.5197C3.92036 11.73 3.43926 11.5945 3.2335 11.2585L2.38069 11.7807ZM11.6257 4.51714L11.6934 4.48031L11.2153 3.60201L11.1476 3.63883L11.6257 4.51714ZM4.30662 4.4803L4.37428 4.51713L4.85239 3.63883L4.78473 3.602L4.30662 4.4803ZM11.6934 11.5197L11.6257 11.4829L11.1476 12.3612L11.2153 12.398L11.6934 11.5197ZM4.37428 11.4829L4.30662 11.5197L4.78473 12.398L4.85239 12.3612L4.37428 11.4829ZM2.39753 7.59799C2.71602 7.77137 2.71603 8.22863 2.39752 8.40201L2.87563 9.28031C3.88999 8.72814 3.88999 7.27186 2.87563 6.71969L2.39753 7.59799ZM4.85239 12.3612C5.18532 12.1799 5.5909 12.4209 5.5909 12.8H6.5909C6.5909 11.6622 5.37357 10.9389 4.37428 11.4829L4.85239 12.3612ZM10.4091 12.8C10.4091 12.4209 10.8147 12.1799 11.1476 12.3612L11.6257 11.4829C10.6264 10.9389 9.4091 11.6622 9.4091 12.8H10.4091ZM13.6025 8.402C13.284 8.22862 13.284 7.77137 13.6025 7.598L13.1244 6.7197C12.11 7.27187 12.11 8.72813 13.1244 9.2803L13.6025 8.402ZM4.37428 4.51713C5.37357 5.0611 6.5909 4.33775 6.5909 3.2H5.5909C5.5909 3.57907 5.18532 3.82006 4.85239 3.63883L4.37428 4.51713ZM11.1476 3.63883C10.8147 3.82007 10.4091 3.57907 10.4091 3.2H9.4091C9.4091 4.33775 10.6264 5.06111 11.6257 4.51713L11.1476 3.63883ZM9.50001 8C9.50001 8.82843 8.82843 9.5 8.00001 9.5V10.5C9.38072 10.5 10.5 9.38071 10.5 8H9.50001ZM8.00001 9.5C7.17158 9.5 6.50001 8.82843 6.50001 8H5.50001C5.50001 9.38071 6.61929 10.5 8.00001 10.5V9.5ZM6.50001 8C6.50001 7.17157 7.17158 6.5 8.00001 6.5V5.5C6.61929 5.5 5.50001 6.61929 5.50001 8H6.50001ZM8.00001 6.5C8.82843 6.5 9.50001 7.17157 9.50001 8H10.5C10.5 6.61929 9.38072 5.5 8.00001 5.5V6.5Z" fill="#626884"/>
</svg>
