<svg width="20" height="21" viewBox="0 0 20 21" fill="none" xmlns="http://www.w3.org/2000/svg">
<path d="M5.83398 13C4.45328 13 3.33398 14.1193 3.33398 15.5C3.33398 16.8807 4.45328 18 5.83398 18C7.21469 18 8.33398 16.8807 8.33398 15.5C8.33398 14.1193 7.21469 13 5.83398 13Z" stroke="#C4DE54" stroke-width="1.25" stroke-linecap="round" stroke-linejoin="round"/>
<path d="M14.166 13C12.7853 13 11.666 14.1193 11.666 15.5C11.666 16.8807 12.7853 18 14.166 18C15.5468 18 16.666 16.8807 16.666 15.5C16.666 14.1193 15.5468 13 14.166 13Z" stroke="#C4DE54" stroke-width="1.25" stroke-linecap="round" stroke-linejoin="round"/>
<path d="M11.6673 14.668H8.33398" stroke="#C4DE54" stroke-width="1.25" stroke-linecap="round" stroke-linejoin="round"/>
<path d="M18.3327 11.3346C16.2855 10.3117 13.3105 9.66797 9.99935 9.66797C6.68817 9.66797 3.71317 10.3117 1.66602 11.3346" stroke="#C4DE54" stroke-width="1.25" stroke-linecap="round" stroke-linejoin="round"/>
<path d="M4.16602 10.5L5.01372 4.41326C5.18973 3.14935 6.71219 2.56297 7.72049 3.37073C9.16602 4.66666 10.8327 4.66666 12.2782 3.37073C13.2865 2.56297 14.8089 3.14935 14.985 4.41326L15.8327 10.5" stroke="#C4DE54" stroke-width="1.25" stroke-linejoin="round"/>
</svg>
