<svg width="20" height="21" viewBox="0 0 20 21" fill="none" xmlns="http://www.w3.org/2000/svg">
<path fill-rule="evenodd" clip-rule="evenodd" d="M16.3515 9.47312C17.2163 9.72637 18.0082 10.0311 18.7067 10.3801C19.1183 10.5859 19.2853 11.0864 19.0797 11.498C18.8739 11.9098 18.3734 12.0768 17.9617 11.871C16.059 10.9203 13.2193 10.2923 10.0008 10.2923C6.78233 10.2923 3.94266 10.9203 2.03998 11.871C1.62828 12.0768 1.12777 11.9098 0.922051 11.498C0.71633 11.0864 0.883309 10.5859 1.29502 10.3801C1.99371 10.031 2.78577 9.7262 3.65093 9.47287L4.39653 4.1193C4.64195 2.35709 6.74072 1.57579 8.11309 2.67521C8.12212 2.68244 8.13093 2.68991 8.13953 2.69763C8.77232 3.26494 9.40732 3.50994 10.0012 3.50994C10.5951 3.50994 11.2301 3.26494 11.8628 2.69763C11.8714 2.68991 11.8802 2.68244 11.8893 2.67521C13.2617 1.57579 15.3604 2.35709 15.6058 4.1193L16.3515 9.47312ZM5.83398 13.6255C4.91351 13.6255 4.16732 14.3717 4.16732 15.2921C4.16732 16.2126 4.91351 16.9588 5.83398 16.9588C6.75446 16.9588 7.50065 16.2126 7.50065 15.2921C7.50065 14.3717 6.75446 13.6255 5.83398 13.6255ZM2.50065 15.2921C2.50065 13.4512 3.99303 11.9588 5.83398 11.9588C7.06779 11.9588 8.14503 12.6291 8.7214 13.6255H11.2799C11.8562 12.6291 12.9335 11.9588 14.1673 11.9588C16.0082 11.9588 17.5007 13.4512 17.5007 15.2921C17.5007 17.1331 16.0082 18.6255 14.1673 18.6255C12.3264 18.6255 10.834 17.1331 10.834 15.2921H9.16732C9.16732 17.1331 7.67493 18.6255 5.83398 18.6255C3.99303 18.6255 2.50065 17.1331 2.50065 15.2921ZM14.1673 13.6255C13.2468 13.6255 12.5007 14.3717 12.5007 15.2921C12.5007 16.2126 13.2468 16.9588 14.1673 16.9588C15.0878 16.9588 15.834 16.2126 15.834 15.2921C15.834 14.3717 15.0878 13.6255 14.1673 13.6255Z" fill="#C4DE54"/>
</svg>
