<svg width="29" height="28" viewBox="0 0 29 28" fill="none" xmlns="http://www.w3.org/2000/svg">
<path d="M17.416 13.4154L18.5827 14.582M5.16602 22.1654V5.83203C5.16602 3.89903 6.73302 2.33203 8.66602 2.33203H20.3327C22.2657 2.33203 23.8327 3.89903 23.8327 5.83203V18.6654M5.16602 22.1654C5.16602 24.0984 6.73302 25.6654 8.66602 25.6654H20.3327C22.2657 25.6654 23.8327 24.0984 23.8327 22.1654V18.6654M5.16602 22.1654C5.16602 20.2324 6.73302 18.6654 8.66602 18.6654H23.8327M17.9993 10.4987C17.9993 12.4317 16.4323 13.9987 14.4993 13.9987C12.5664 13.9987 10.9993 12.4317 10.9993 10.4987C10.9993 8.5657 12.5664 6.9987 14.4993 6.9987C16.4323 6.9987 17.9993 8.5657 17.9993 10.4987Z" stroke="white" stroke-width="1.5" stroke-linecap="round"/>
</svg>
