<svg width="27" height="28" viewBox="0 0 27 28" fill="none" xmlns="http://www.w3.org/2000/svg">
<path d="M16.8588 15.1168C20.567 15.1168 23.5731 14.1148 23.5731 12.8787C23.5731 11.6427 20.567 10.6406 16.8588 10.6406C13.1506 10.6406 10.1445 11.6427 10.1445 12.8787C10.1445 14.1148 13.1506 15.1168 16.8588 15.1168Z" stroke="#626884" stroke-width="1.67857"/>
<path d="M9.02483 7.28478C12.733 7.28478 15.7391 6.28276 15.7391 5.04669C15.7391 3.81062 12.733 2.80859 9.02483 2.80859C5.31663 2.80859 2.31055 3.81062 2.31055 5.04669C2.31055 6.28276 5.31663 7.28478 9.02483 7.28478Z" stroke="#626884" stroke-width="1.67857"/>
<path d="M2.31055 9.52344C2.31055 10.5567 4.17893 11.4357 6.78674 11.7615" stroke="#626884" stroke-width="1.67857" stroke-linecap="round"/>
<path d="M2.31055 14C2.31055 15.0333 4.17893 15.9123 6.78674 16.2381" stroke="#626884" stroke-width="1.67857" stroke-linecap="round"/>
<path d="M2.31055 5.04688V18.4754C2.31055 19.4499 4.17893 20.4064 6.78674 20.7135" stroke="#626884" stroke-width="1.67857" stroke-linecap="round"/>
<path d="M23.5731 12.8789V21.8313C23.5731 23.0674 20.567 24.0694 16.8588 24.0694C13.1506 24.0694 10.1445 23.0674 10.1445 21.8313V12.8789" stroke="#626884" stroke-width="1.67857"/>
<path d="M23.5731 17.3555C23.5731 18.5916 20.5671 19.5936 16.8588 19.5936C13.1505 19.5936 10.1445 18.5916 10.1445 17.3555" stroke="#626884" stroke-width="1.67857" stroke-linecap="round"/>
</svg>
