<svg width="27" height="28" viewBox="0 0 27 28" fill="none" xmlns="http://www.w3.org/2000/svg">
<path d="M10.1439 2.80859H3.42959C2.81157 2.80859 2.31055 3.30961 2.31055 3.92764V10.6419C2.31055 11.26 2.81157 11.761 3.42959 11.761H10.1439C10.7619 11.761 11.2629 11.26 11.2629 10.6419V3.92764C11.2629 3.30961 10.7619 2.80859 10.1439 2.80859Z" stroke="#626884" stroke-width="1.67857" stroke-linejoin="round"/>
<path d="M23.5716 2.80859H16.8573C16.2393 2.80859 15.7383 3.30961 15.7383 3.92764V10.6419C15.7383 11.26 16.2393 11.761 16.8573 11.761H23.5716C24.1897 11.761 24.6907 11.26 24.6907 10.6419V3.92764C24.6907 3.30961 24.1897 2.80859 23.5716 2.80859Z" stroke="#626884" stroke-width="1.67857" stroke-linejoin="round"/>
<path d="M10.1439 16.2383H3.42959C2.81157 16.2383 2.31055 16.7393 2.31055 17.3573V24.0716C2.31055 24.6897 2.81157 25.1907 3.42959 25.1907H10.1439C10.7619 25.1907 11.2629 24.6897 11.2629 24.0716V17.3573C11.2629 16.7393 10.7619 16.2383 10.1439 16.2383Z" stroke="#626884" stroke-width="1.67857" stroke-linejoin="round"/>
<path d="M23.5716 16.2383H16.8573C16.2393 16.2383 15.7383 16.7393 15.7383 17.3573V24.0716C15.7383 24.6897 16.2393 25.1907 16.8573 25.1907H23.5716C24.1897 25.1907 24.6907 24.6897 24.6907 24.0716V17.3573C24.6907 16.7393 24.1897 16.2383 23.5716 16.2383Z" stroke="#626884" stroke-width="1.67857" stroke-linejoin="round"/>
</svg>
