<svg width="29" height="28" viewBox="0 0 29 28" fill="none" xmlns="http://www.w3.org/2000/svg">
<path d="M19.1667 5.08203C18.7525 5.08203 18.4167 5.41782 18.4167 5.83203C18.4167 6.24624 18.7525 6.58203 19.1667 6.58203V5.08203ZM9.83333 6.58203C10.2475 6.58203 10.5833 6.24624 10.5833 5.83203C10.5833 5.41782 10.2475 5.08203 9.83333 5.08203V6.58203ZM15.25 22.1654C15.25 21.7512 14.9142 21.4154 14.5 21.4154C14.0858 21.4154 13.75 21.7512 13.75 22.1654H15.25ZM11 24.9154C10.5858 24.9154 10.25 25.2512 10.25 25.6654C10.25 26.0796 10.5858 26.4154 11 26.4154V24.9154ZM18 26.4154C18.4142 26.4154 18.75 26.0796 18.75 25.6654C18.75 25.2512 18.4142 24.9154 18 24.9154V26.4154ZM15.25 3.71736C15.25 3.30314 14.9142 2.96736 14.5 2.96736C14.0858 2.96736 13.75 3.30314 13.75 3.71736H15.25ZM13.75 10.1822C13.75 10.5964 14.0858 10.9322 14.5 10.9322C14.9142 10.9322 15.25 10.5964 15.25 10.1822H13.75ZM10.764 2.33715L10.6821 3.08266L10.764 2.33715ZM14.5 3.4987L14.0777 4.11853L14.5 4.4062L14.9223 4.11853L14.5 3.4987ZM10.764 9.30651L10.6821 10.052L10.764 9.30651ZM14.5 10.4987L14.0777 11.1185C14.3325 11.2921 14.6675 11.2921 14.9223 11.1185L14.5 10.4987ZM18.236 2.33715L18.3179 3.08266L18.236 2.33715ZM18.236 9.30651L18.3179 10.052L18.236 9.30651ZM24.25 8.16536V19.832H25.75V8.16536H24.25ZM22.6667 21.4154H6.33333V22.9154H22.6667V21.4154ZM4.75 19.832V8.16536H3.25V19.832H4.75ZM19.1667 6.58203H22.6667V5.08203H19.1667V6.58203ZM6.33333 6.58203H9.83333V5.08203H6.33333V6.58203ZM6.33333 21.4154C5.45888 21.4154 4.75 20.7065 4.75 19.832H3.25C3.25 21.5349 4.63046 22.9154 6.33333 22.9154V21.4154ZM24.25 19.832C24.25 20.7065 23.5411 21.4154 22.6667 21.4154V22.9154C24.3695 22.9154 25.75 21.5349 25.75 19.832H24.25ZM25.75 8.16536C25.75 6.46249 24.3695 5.08203 22.6667 5.08203V6.58203C23.5411 6.58203 24.25 7.29091 24.25 8.16536H25.75ZM4.75 8.16536C4.75 7.29091 5.45888 6.58203 6.33333 6.58203V5.08203C4.63046 5.08203 3.25 6.46249 3.25 8.16536H4.75ZM13.75 22.1654V25.6654H15.25V22.1654H13.75ZM14.5 24.9154H11V26.4154H14.5V24.9154ZM14.5 26.4154H18V24.9154H14.5V26.4154ZM13.75 3.71736V10.1822H15.25V3.71736H13.75ZM10.6821 3.08266C11.1617 3.13535 11.8071 3.24951 12.4452 3.42928C13.0933 3.61188 13.6794 3.84717 14.0777 4.11853L14.9223 2.87887C14.3295 2.47506 13.5652 2.18643 12.852 1.98548C12.1286 1.78171 11.4016 1.65268 10.8459 1.59163L10.6821 3.08266ZM10.6821 10.052C11.1557 10.104 11.7987 10.2246 12.4377 10.4118C13.0855 10.6016 13.6755 10.8445 14.0777 11.1185L14.9223 9.87887C14.3334 9.47772 13.5731 9.18139 12.8595 8.97232C12.137 8.76066 11.4076 8.6227 10.8459 8.561L10.6821 10.052ZM9.08333 3.21003V8.3209H10.5833V3.21003H9.08333ZM10.8459 8.561C10.766 8.55222 10.6951 8.515 10.6469 8.46498C10.6008 8.41706 10.5833 8.36696 10.5833 8.3209H9.08333C9.08333 9.2634 9.83792 9.95928 10.6821 10.052L10.8459 8.561ZM10.8459 1.59163C9.84277 1.48142 9.08333 2.29866 9.08333 3.21003H10.5833C10.5833 3.15878 10.6038 3.12226 10.6246 3.10231C10.6348 3.09265 10.644 3.08768 10.6511 3.0852C10.6572 3.08305 10.6665 3.08094 10.6821 3.08266L10.8459 1.59163ZM18.1541 1.59163C17.5984 1.65268 16.8714 1.78171 16.148 1.98548C15.4348 2.18643 14.6705 2.47506 14.0777 2.87887L14.9223 4.11853C15.3206 3.84717 15.9067 3.61188 16.5548 3.42928C17.1929 3.24951 17.8383 3.13535 18.3179 3.08266L18.1541 1.59163ZM18.1541 8.561C17.5924 8.6227 16.863 8.76066 16.1405 8.97232C15.4269 9.18139 14.6666 9.47772 14.0777 9.87887L14.9223 11.1185C15.3245 10.8445 15.9145 10.6016 16.5623 10.4118C17.2013 10.2246 17.8443 10.104 18.3179 10.052L18.1541 8.561ZM18.4167 3.21003V8.3209H19.9167V3.21003H18.4167ZM18.3179 10.052C19.1621 9.95928 19.9167 9.2634 19.9167 8.3209H18.4167C18.4167 8.36696 18.3992 8.41706 18.3531 8.46498C18.3049 8.515 18.234 8.55222 18.1541 8.561L18.3179 10.052ZM18.3179 3.08266C18.3335 3.08094 18.3428 3.08305 18.3489 3.0852C18.356 3.08768 18.3652 3.09265 18.3754 3.10231C18.3962 3.12226 18.4167 3.15878 18.4167 3.21003H19.9167C19.9167 2.29866 19.1572 1.48142 18.1541 1.59163L18.3179 3.08266Z" fill="white"/>
</svg>
