<svg width="29" height="28" viewBox="0 0 29 28" fill="none" xmlns="http://www.w3.org/2000/svg">
<path d="M10.5694 12.1722C9.89899 10.834 8.51495 9.91536 6.91634 9.91536C4.66118 9.91536 2.83301 11.7435 2.83301 13.9987C2.83301 16.2539 4.66118 18.082 6.91634 18.082C8.51495 18.082 9.89899 17.1634 10.5694 15.8252M10.5694 12.1722C10.8447 12.7218 10.9997 13.3421 10.9997 13.9987C10.9997 14.6553 10.8447 15.2756 10.5694 15.8252M10.5694 12.1722L18.43 8.24189M10.5694 15.8252L18.43 19.7555M18.43 8.24189C19.1004 9.58006 20.4844 10.4987 22.083 10.4987C24.3382 10.4987 26.1663 8.67053 26.1663 6.41536C26.1663 4.1602 24.3382 2.33203 22.083 2.33203C19.8278 2.33203 17.9997 4.1602 17.9997 6.41536C17.9997 7.07192 18.1546 7.69229 18.43 8.24189ZM18.43 19.7555C18.1546 20.3051 17.9997 20.9255 17.9997 21.582C17.9997 23.8372 19.8278 25.6654 22.083 25.6654C24.3382 25.6654 26.1663 23.8372 26.1663 21.582C26.1663 19.3269 24.3382 17.4987 22.083 17.4987C20.4844 17.4987 19.1004 18.4173 18.43 19.7555Z" stroke="white" stroke-width="1.5" stroke-linecap="round"/>
</svg>
