<svg width="16" height="16" viewBox="0 0 16 16" fill="none" xmlns="http://www.w3.org/2000/svg">
<g clip-path="url(#clip0_3865_75235)">
<path d="M6.69115 2.17964C7.2276 1.0495 8.7776 1.04949 9.31406 2.17964L10.2412 4.13282C10.4542 4.5816 10.866 4.89266 11.3424 4.96462L13.4155 5.27783C14.615 5.45905 15.094 6.99173 14.226 7.87142L12.7259 9.39176C12.3812 9.74108 12.2239 10.2444 12.3053 10.7376L12.6594 12.8844C12.8643 14.1265 11.6103 15.0738 10.5374 14.4873L8.68316 13.4738C8.2571 13.2409 7.74811 13.2409 7.32205 13.4738L5.46778 14.4873C4.39487 15.0738 3.14089 14.1265 3.34579 12.8844L3.69993 10.7376C3.7813 10.2444 3.62401 9.74109 3.27933 9.39176L1.77919 7.87142C0.911182 6.99173 1.39016 5.45905 2.58971 5.27783L4.66285 4.96462C5.1392 4.89266 5.55098 4.5816 5.76401 4.13282L6.69115 2.17964Z" stroke="#626884" stroke-linejoin="round"/>
</g>
<defs>
<clipPath id="clip0_3865_75235">
<rect width="16" height="16" fill="white"/>
</clipPath>
</defs>
</svg>
