<svg width="16" height="16" viewBox="0 0 16 16" fill="none" xmlns="http://www.w3.org/2000/svg">
<g clip-path="url(#clip0_3865_75276)">
<path d="M10.1239 8.42969L10.3596 8.19399C10.8803 7.67329 10.8803 6.82907 10.3596 6.30837C9.83894 5.78767 8.99472 5.78767 8.47402 6.30837L7.53121 7.25118C7.01051 7.77188 7.01051 8.6161 7.53121 9.1368M5.88127 8.90104L5.64557 9.13674C5.12487 9.65744 5.12487 10.5017 5.64557 11.0224C6.16627 11.5431 7.01049 11.5431 7.53119 11.0224L8.474 10.0796C8.9947 9.55885 8.9947 8.71463 8.474 8.19393M10.7895 14.6654H5.2157C3.67654 14.6654 2.4288 13.4747 2.4288 12.0059V8.75406C2.4288 8.28191 2.23225 7.82909 1.8824 7.49523C1.07181 6.7217 1.17718 5.44006 2.10427 4.79664L6.36343 1.84069C7.34066 1.16248 8.66455 1.16248 9.64178 1.84069L13.9009 4.79664C14.828 5.44006 14.9334 6.7217 14.1228 7.49523C13.773 7.82909 13.5764 8.28191 13.5764 8.75406V12.0059C13.5764 13.4747 12.3287 14.6654 10.7895 14.6654Z" stroke="#626884" stroke-linecap="round"/>
</g>
<defs>
<clipPath id="clip0_3865_75276">
<rect width="16" height="16" fill="white"/>
</clipPath>
</defs>
</svg>
