<svg width="16" height="16" viewBox="0 0 16 16" fill="none" xmlns="http://www.w3.org/2000/svg">
<path d="M4.66927 4.66667V3.33333C4.66927 2.59695 5.26622 2 6.0026 2H13.3359C14.0723 2 14.6693 2.59695 14.6693 3.33333V9.33333C14.6693 10.0697 14.0723 10.6667 13.3359 10.6667H10.0026M7.33594 5H12.0026M9.33594 7.66667H12.0026M3.72646 11.0572C4.24716 11.5779 5.09138 11.5779 5.61208 11.0572C5.86213 10.8071 6.20127 10.6667 6.55489 10.6667H6.66927C7.40565 10.6667 8.0026 11.2636 8.0026 12V12.6667C8.0026 13.403 7.40565 14 6.66927 14H2.66927C1.93289 14 1.33594 13.403 1.33594 12.6667V12C1.33594 11.2636 1.93289 10.6667 2.66927 10.6667H2.78365C3.13727 10.6667 3.47641 10.8071 3.72646 11.0572ZM6.0026 8C6.0026 8.73638 5.40565 9.33333 4.66927 9.33333C3.93289 9.33333 3.33594 8.73638 3.33594 8C3.33594 7.26362 3.93289 6.66667 4.66927 6.66667C5.40565 6.66667 6.0026 7.26362 6.0026 8Z" stroke="#626884" stroke-linecap="round"/>
</svg>
