<svg width="16" height="16" viewBox="0 0 16 16" fill="none" xmlns="http://www.w3.org/2000/svg">
<path d="M9.33594 14H8.0026C6.52985 14 5.33594 12.8061 5.33594 11.3333V4.66667C5.33594 3.19391 6.52985 2 8.0026 2H12.0026C13.4754 2 14.6693 3.19391 14.6693 4.66667V9.33333M1.33594 4.66667H3.33594M8.0026 4.66667H12.0026M8.0026 7.33333H12.0026M8.0026 10H10.0026M10.6693 12.6667L11.8378 13.6015C12.1164 13.8244 12.5211 13.7884 12.756 13.5199L14.6693 11.3333M2.33594 14L2.8026 13.3778C3.1488 12.9162 3.33594 12.3548 3.33594 11.7778V3C3.33594 2.44772 2.88822 2 2.33594 2C1.78365 2 1.33594 2.44772 1.33594 3V11.7778C1.33594 12.3548 1.52308 12.9162 1.86927 13.3778L2.33594 14Z" stroke="#626884" stroke-linecap="round" stroke-linejoin="round"/>
</svg>
