<svg width="25" height="24" viewBox="0 0 25 24" fill="none" xmlns="http://www.w3.org/2000/svg">
<path d="M22.6641 10V18C22.6641 20.2091 20.8732 22 18.6641 22H6.66406C4.45492 22 2.66406 20.2091 2.66406 18V10M22.6641 10C22.6641 7.79086 20.8732 6 18.6641 6H6.66406C4.45492 6 2.66406 7.79086 2.66406 10M22.6641 10C22.6641 10 19.5014 12.7647 12.6641 12.5811C5.82668 12.3975 2.66406 10 2.66406 10M8.66406 6V5C8.66406 3.34315 10.0072 2 11.6641 2H13.6641C15.3209 2 16.6641 3.34315 16.6641 5V6M8.66406 10.6767V13.6767M16.6641 10.6767V13.6767" stroke="#4F40FF" stroke-width="1.5" stroke-linecap="round"/>
</svg>
