<svg width="24" height="24" viewBox="0 0 24 24" fill="none" xmlns="http://www.w3.org/2000/svg">
<path d="M12.75 13C12.75 13.4142 12.4142 13.75 12 13.75C11.5858 13.75 11.25 13.4142 11.25 13C11.25 12.5858 11.5858 12.25 12 12.25C12.4142 12.25 12.75 12.5858 12.75 13Z" fill="#28303F"/>
<path d="M16.2426 8.75736C15.1568 7.67157 13.6568 7 12 7C10.3431 7 8.84311 7.67157 7.75732 8.75736M9.87864 10.8787C10.4215 10.3358 11.1715 10 12 10C12.8284 10 13.5784 10.3358 14.1213 10.8787M7 21C10.7675 19.6753 12.9293 19.658 17 21M12 20V17M2 7L2 13C2 15.2091 3.79086 17 6 17L18 17C20.2091 17 22 15.2091 22 13V7C22 4.79086 20.2091 3 18 3L6 3C3.79086 3 2 4.79086 2 7Z" stroke="#4F40FF" stroke-width="1.5" stroke-linecap="round" stroke-linejoin="round"/>
</svg>
