<svg width="25" height="24" viewBox="0 0 25 24" fill="none" xmlns="http://www.w3.org/2000/svg">
<path d="M17.8206 10.3355L19.2348 11.7497M15.6993 12.4568V13.871M19.9419 8.21416H21.3561M8.33869 6L3.54399 11.5938C2.86387 12.3873 2.90932 13.5706 3.64829 14.3096L11.3387 22M11.3387 22H15.3387M11.3387 22H7.33869M8.48939 5.23296L10.1393 9.2399C10.6827 10.5596 12.3937 10.9018 13.4029 9.89261L16.2313 7.06419C17.2405 6.05504 16.8982 4.34401 15.5786 3.80062L11.5717 2.1507C10.8251 1.84328 9.96686 2.01493 9.39594 2.58584L8.92453 3.05725C8.35361 3.62817 8.18197 4.48638 8.48939 5.23296Z" stroke="#4F40FF" stroke-width="1.5" stroke-linecap="round" stroke-linejoin="round"/>
</svg>
