<svg width="25" height="24" viewBox="0 0 25 24" fill="none" xmlns="http://www.w3.org/2000/svg">
<path d="M22.6641 5H21.9141H22.6641ZM22.6641 15H23.4141H22.6641ZM2.66406 15H3.41406H2.66406ZM2.66406 5H1.91406H2.66406ZM20.6641 3V2.25V3ZM20.6641 17V16.25V17ZM20.1641 16.25C19.7498 16.25 19.4141 16.5858 19.4141 17C19.4141 17.4142 19.7498 17.75 20.1641 17.75V16.25ZM10.1641 17.75C10.5783 17.75 10.9141 17.4142 10.9141 17C10.9141 16.5858 10.5783 16.25 10.1641 16.25V17.75ZM4.66406 17V17.75V17ZM6.66406 6.25C6.24985 6.25 5.91406 6.58579 5.91406 7C5.91406 7.41421 6.24985 7.75 6.66406 7.75V6.25ZM18.6641 7.75C19.0783 7.75 19.4141 7.41421 19.4141 7C19.4141 6.58579 19.0783 6.25 18.6641 6.25V7.75ZM6.66406 10.25C6.24985 10.25 5.91406 10.5858 5.91406 11C5.91406 11.4142 6.24985 11.75 6.66406 11.75V10.25ZM10.6641 11.75C11.0783 11.75 11.4141 11.4142 11.4141 11C11.4141 10.5858 11.0783 10.25 10.6641 10.25V11.75ZM14.4141 17.5C14.4141 17.0858 14.0783 16.75 13.6641 16.75C13.2499 16.75 12.9141 17.0858 12.9141 17.5H14.4141ZM13.6641 21H12.9141C12.9141 21.2599 13.0487 21.5013 13.2698 21.638C13.4909 21.7746 13.767 21.7871 13.9995 21.6708L13.6641 21ZM15.6641 20L15.9995 19.3292C15.7883 19.2236 15.5398 19.2236 15.3287 19.3292L15.6641 20ZM17.6641 21L17.3287 21.6708C17.5611 21.7871 17.8372 21.7746 18.0584 21.638C18.2795 21.5013 18.4141 21.2599 18.4141 21H17.6641ZM18.4141 17.5C18.4141 17.0858 18.0783 16.75 17.6641 16.75C17.2499 16.75 16.9141 17.0858 16.9141 17.5H18.4141ZM21.9141 5V15H23.4141V5H21.9141ZM3.41406 15L3.41406 5H1.91406L1.91406 15H3.41406ZM4.66406 3.75L20.6641 3.75V2.25L4.66406 2.25V3.75ZM20.6641 16.25H20.1641V17.75H20.6641V16.25ZM10.1641 16.25H4.66406V17.75H10.1641V16.25ZM3.41406 5C3.41406 4.30964 3.97371 3.75 4.66406 3.75V2.25C3.14528 2.25 1.91406 3.48122 1.91406 5H3.41406ZM1.91406 15C1.91406 16.5188 3.14528 17.75 4.66406 17.75V16.25C3.97371 16.25 3.41406 15.6904 3.41406 15H1.91406ZM21.9141 15C21.9141 15.6904 21.3544 16.25 20.6641 16.25V17.75C22.1828 17.75 23.4141 16.5188 23.4141 15H21.9141ZM23.4141 5C23.4141 3.48122 22.1828 2.25 20.6641 2.25V3.75C21.3544 3.75 21.9141 4.30964 21.9141 5H23.4141ZM17.9141 15C17.9141 16.2426 16.9067 17.25 15.6641 17.25V18.75C17.7351 18.75 19.4141 17.0711 19.4141 15H17.9141ZM15.6641 17.25C14.4214 17.25 13.4141 16.2426 13.4141 15H11.9141C11.9141 17.0711 13.593 18.75 15.6641 18.75V17.25ZM13.4141 15C13.4141 13.7574 14.4214 12.75 15.6641 12.75V11.25C13.593 11.25 11.9141 12.9289 11.9141 15H13.4141ZM15.6641 12.75C16.9067 12.75 17.9141 13.7574 17.9141 15H19.4141C19.4141 12.9289 17.7351 11.25 15.6641 11.25V12.75ZM6.66406 7.75H18.6641V6.25H6.66406V7.75ZM6.66406 11.75H10.6641V10.25H6.66406V11.75ZM12.9141 17.5V21H14.4141V17.5H12.9141ZM13.9995 21.6708L15.9995 20.6708L15.3287 19.3292L13.3287 20.3292L13.9995 21.6708ZM15.3287 20.6708L17.3287 21.6708L17.9995 20.3292L15.9995 19.3292L15.3287 20.6708ZM18.4141 21V17.5H16.9141V21H18.4141Z" fill="#4F40FF"/>
</svg>
