<svg width="24" height="24" viewBox="0 0 24 24" fill="none" xmlns="http://www.w3.org/2000/svg">
<path d="M12.6121 8.03492C11.2212 7.02803 9.94717 5.76386 8 5.98181C6.13272 6.19082 3.85997 7.73892 2.72215 8.59925C2.25538 8.95219 2 9.5089 2 10.0941V19.7635C2 20.617 3.0279 21.1119 3.73627 20.6358C4.94575 19.8231 6.58869 18.9001 8 18.7422C11.3183 18.3707 12.6817 22.3037 16 21.9323C17.8673 21.7232 20.14 20.1751 21.2778 19.3148C21.7446 18.9619 22 18.4052 22 17.82V8.15056C22 7.29711 20.9721 6.8022 20.2637 7.27823C19.9622 7.48088 19.6337 7.69038 19.2885 7.89316" stroke="#4F40FF" stroke-width="1.5"/>
<path d="M18.6673 11.0606L18.4178 10.3533L18.6673 11.0606ZM12.5342 8.00544L11.8849 7.63018H11.8849L12.5342 8.00544ZM19.6311 8.32378L18.9506 8.63916L19.6311 8.32378ZM12.8641 7.52045L13.4518 7.98646L12.8641 7.52045ZM17.25 4.00391C17.25 4.69426 16.6904 5.25391 16 5.25391V6.75391C17.5188 6.75391 18.75 5.52269 18.75 4.00391H17.25ZM16 5.25391C15.3096 5.25391 14.75 4.69426 14.75 4.00391H13.25C13.25 5.52269 14.4812 6.75391 16 6.75391V5.25391ZM14.75 4.00391C14.75 3.31355 15.3096 2.75391 16 2.75391V1.25391C14.4812 1.25391 13.25 2.48512 13.25 4.00391H14.75ZM16 2.75391C16.6904 2.75391 17.25 3.31355 17.25 4.00391H18.75C18.75 2.48512 17.5188 1.25391 16 1.25391V2.75391ZM17.25 12.0039V14.0039H18.75V12.0039H17.25ZM14.75 14.0039V12.0039H13.25V14.0039H14.75ZM16 15.2539C15.3096 15.2539 14.75 14.6943 14.75 14.0039H13.25C13.25 15.5227 14.4812 16.7539 16 16.7539V15.2539ZM17.25 14.0039C17.25 14.6943 16.6904 15.2539 16 15.2539V16.7539C17.5188 16.7539 18.75 15.5227 18.75 14.0039H17.25ZM11.25 10.0039C11.25 10.9704 12.0335 11.7539 13 11.7539V10.2539C12.8619 10.2539 12.75 10.142 12.75 10.0039H11.25ZM14.75 12.0039C14.75 11.0374 13.9665 10.2539 13 10.2539V11.7539C13.1381 11.7539 13.25 11.8658 13.25 12.0039H14.75ZM19.25 10.0039C19.25 10.142 19.1381 10.2539 19 10.2539V11.7539C19.9665 11.7539 20.75 10.9704 20.75 10.0039H19.25ZM18.75 12.0039C18.75 11.8962 18.8186 11.8025 18.9168 11.7679L18.4178 10.3533C17.7386 10.5929 17.25 11.2404 17.25 12.0039H18.75ZM18.9168 11.7679C18.9418 11.759 18.9695 11.7539 19 11.7539V10.2539C18.7972 10.2539 18.6009 10.2887 18.4178 10.3533L18.9168 11.7679ZM11.8849 7.63018C11.4809 8.3292 11.25 9.14072 11.25 10.0039H12.75C12.75 9.41121 12.908 8.85768 13.1836 8.38069L11.8849 7.63018ZM16 6.75391C17.3062 6.75391 18.434 7.52451 18.9506 8.63916L20.3116 8.00839C19.5584 6.38347 17.9119 5.25391 16 5.25391V6.75391ZM18.9506 8.63916C19.1425 9.05319 19.25 9.51497 19.25 10.0039H20.75C20.75 9.29269 20.5932 8.61604 20.3116 8.00839L18.9506 8.63916ZM16 5.25391C14.4906 5.25391 13.1453 5.95882 12.2765 7.05443L13.4518 7.98646C14.0483 7.23421 14.9678 6.75391 16 6.75391V5.25391ZM12.2765 7.05443C12.1325 7.23595 12.0015 7.42833 11.8849 7.63018L13.1836 8.38069C13.2634 8.24264 13.3531 8.11089 13.4518 7.98646L12.2765 7.05443Z" fill="#4F40FF"/>
</svg>
