<svg width="25" height="24" viewBox="0 0 25 24" fill="none" xmlns="http://www.w3.org/2000/svg">
<path d="M10.3359 8V6M10.3359 18V16M10.3359 13V11M6.33594 21C4.1268 21 2.33594 19.2091 2.33594 17V16C2.33594 15.4477 2.79594 15.0163 3.31783 14.8356C4.49247 14.4289 5.33594 13.313 5.33594 12C5.33594 10.687 4.49247 9.57105 3.31783 9.16437C2.79594 8.98368 2.33594 8.55228 2.33594 8V7C2.33594 4.79086 4.1268 3 6.33594 3H18.3359C20.5451 3 22.3359 4.79086 22.3359 7V8C22.3359 8.55228 21.8759 8.98368 21.354 9.16437C20.1794 9.57105 19.3359 10.687 19.3359 12C19.3359 13.313 20.1794 14.4289 21.354 14.8356C21.8759 15.0163 22.3359 15.4477 22.3359 16V17C22.3359 19.2091 20.5451 21 18.3359 21H6.33594Z" stroke="#4F40FF" stroke-width="1.5" stroke-linecap="round" stroke-linejoin="round"/>
</svg>
