<svg width="20" height="20" viewBox="0 0 20 20" fill="none" xmlns="http://www.w3.org/2000/svg">
<path d="M12.5 10.8333C15.2614 10.8333 17.5 10.0872 17.5 9.16666C17.5 8.24619 15.2614 7.5 12.5 7.5C9.73858 7.5 7.5 8.24619 7.5 9.16666C7.5 10.0872 9.73858 10.8333 12.5 10.8333Z" stroke="#C4DE54" stroke-width="1.25"/>
<path d="M6.66602 5.0013C9.42743 5.0013 11.666 4.25511 11.666 3.33464C11.666 2.41416 9.42743 1.66797 6.66602 1.66797C3.90459 1.66797 1.66602 2.41416 1.66602 3.33464C1.66602 4.25511 3.90459 5.0013 6.66602 5.0013Z" stroke="#C4DE54" stroke-width="1.25"/>
<path d="M1.66602 6.66797C1.66602 7.43743 3.05737 8.09203 4.99935 8.33463" stroke="#C4DE54" stroke-width="1.25" stroke-linecap="round"/>
<path d="M1.66602 10C1.66602 10.7695 3.05737 11.4241 4.99935 11.6667" stroke="#C4DE54" stroke-width="1.25" stroke-linecap="round"/>
<path d="M1.66602 3.33203V13.332C1.66602 14.0577 3.05737 14.7699 4.99935 14.9987" stroke="#C4DE54" stroke-width="1.25" stroke-linecap="round"/>
<path d="M17.5 9.16797V15.8346C17.5 16.7551 15.2614 17.5013 12.5 17.5013C9.73858 17.5013 7.5 16.7551 7.5 15.8346V9.16797" stroke="#C4DE54" stroke-width="1.25"/>
<path d="M17.5 12.5C17.5 13.4205 15.2615 14.1667 12.5 14.1667C9.7385 14.1667 7.5 13.4205 7.5 12.5" stroke="#C4DE54" stroke-width="1.25" stroke-linecap="round"/>
</svg>
