<svg width="24" height="24" viewBox="0 0 24 24" fill="none" xmlns="http://www.w3.org/2000/svg">
<path fill-rule="evenodd" clip-rule="evenodd" d="M5.43106 10.2508C4.37314 10.2508 4.15234 10.4524 4.15234 11.4182V13.1691C4.15234 14.1348 4.37314 14.3364 5.43106 14.3364H7.98847V21.3403C7.98847 22.306 8.20926 22.5075 9.26718 22.5075H11.8246C12.8825 22.5075 13.1033 22.306 13.1033 21.3403V14.3364H15.9749C16.7772 14.3364 16.984 14.194 17.2044 13.4898L17.7525 11.7388C18.13 10.5325 17.8973 10.2508 16.5229 10.2508H13.1033V7.3326C13.1033 6.68792 13.6758 6.1653 14.382 6.1653H18.0214C19.0793 6.1653 19.3001 5.96375 19.3001 4.99799V2.66339C19.3001 1.69765 19.0793 1.49609 18.0214 1.49609H14.382C10.8509 1.49609 7.98847 4.10919 7.98847 7.3326V10.2508H5.43106Z" fill="#2B2B2B"/>
</svg>
