<svg width="27" height="28" viewBox="0 0 27 28" fill="none" xmlns="http://www.w3.org/2000/svg">
<path d="M11.8216 22.9526V6.16685C11.8216 5.2398 11.0701 4.48828 10.143 4.48828H4.54778C3.62074 4.48828 2.86922 5.2398 2.86921 6.16684L2.86914 22.9526C2.86914 23.8796 3.62066 24.6311 4.54771 24.6311H10.143C11.0701 24.6311 11.8216 23.8796 11.8216 22.9526Z" stroke="#626884" stroke-width="1.67857" stroke-linecap="round" stroke-linejoin="round"/>
<path d="M7.3457 20.7148H7.35575" stroke="#626884" stroke-width="2.2381" stroke-linecap="round" stroke-linejoin="round"/>
<path d="M19.6562 20.7148H19.6663" stroke="#626884" stroke-width="2.2381" stroke-linecap="round" stroke-linejoin="round"/>
<path d="M22.7329 23.7497C23.6317 23.6074 24.2496 22.7322 24.113 21.795L21.6399 4.82594C21.5033 3.88877 20.6639 3.24449 19.7651 3.38691L14.3405 4.24649C13.4416 4.38891 12.8237 5.2641 12.9603 6.20127L15.4334 23.1703C15.5699 24.1075 16.4093 24.7517 17.3082 24.6094L22.7329 23.7497Z" stroke="#626884" stroke-width="1.67857" stroke-linecap="round" stroke-linejoin="round"/>
<path d="M21.9138 7.97656L13.5 9.52349" stroke="#626884" stroke-width="1.67857" stroke-linecap="round" stroke-linejoin="round"/>
<path d="M2.86914 8.96484H11.8215" stroke="#626884" stroke-width="1.67857" stroke-linecap="round" stroke-linejoin="round"/>
</svg>
