<svg width="25" height="24" viewBox="0 0 25 24" fill="none" xmlns="http://www.w3.org/2000/svg">
<path d="M5.7967 9.07031H5.30807C4.38668 9.07031 3.92599 9.07031 3.63975 9.35655C3.35352 9.64279 3.35352 10.1035 3.35352 11.0249V19.3317C3.35352 20.2531 3.35352 20.7138 3.63975 21C3.92599 21.2863 4.38668 21.2863 5.30807 21.2863H5.7967C6.71809 21.2863 7.17878 21.2863 7.46502 21C7.75125 20.7138 7.75125 20.2531 7.75125 19.3317V11.0249C7.75125 10.1035 7.75125 9.64279 7.46502 9.35655C7.17878 9.07031 6.71809 9.07031 5.7967 9.07031Z" fill="#2B2B2B"/>
<path d="M7.75125 4.91371C7.75125 6.12811 6.76679 7.11258 5.55238 7.11258C4.33798 7.11258 3.35352 6.12811 3.35352 4.91371C3.35352 3.69931 4.33798 2.71484 5.55238 2.71484C6.76679 2.71484 7.75125 3.69931 7.75125 4.91371Z" fill="#2B2B2B"/>
<path d="M12.4688 9.07031H11.6616C10.7402 9.07031 10.2795 9.07031 9.99326 9.35655C9.70703 9.64279 9.70703 10.1035 9.70703 11.0249V19.3317C9.70703 20.2531 9.70703 20.7138 9.99326 21C10.2795 21.2863 10.7402 21.2863 11.6616 21.2863H12.1502C13.0716 21.2863 13.5323 21.2863 13.8185 21C14.1048 20.7138 14.1048 20.2531 14.1048 19.3317L14.1049 15.9113C14.1049 14.2922 14.6209 12.9795 16.1452 12.9795C16.9073 12.9795 17.5252 13.6358 17.5252 14.4454V18.8432C17.5252 19.7645 17.5252 20.2252 17.8115 20.5115C18.0976 20.7977 18.5584 20.7977 19.4798 20.7977H19.9671C20.8883 20.7977 21.3489 20.7977 21.6352 20.5116C21.9214 20.2254 21.9215 19.7648 21.9217 18.8437L21.9231 13.4682C21.9231 11.0395 19.6131 9.07055 17.3267 9.07055C16.025 9.07055 14.8638 9.70856 14.1049 10.7063C14.1048 10.0905 14.1048 9.78268 13.9711 9.55406C13.8863 9.40929 13.7658 9.28876 13.621 9.20407C13.3924 9.07031 13.0846 9.07031 12.4688 9.07031Z" fill="#2B2B2B"/>
</svg>
