<svg width="24" height="24" viewBox="0 0 24 24" fill="none" xmlns="http://www.w3.org/2000/svg">
<path d="M2.75877 2.99172C2.92167 2.67312 3.24932 2.47266 3.60714 2.47266H8.37136C8.67732 2.47266 8.96467 2.61958 9.14381 2.86762L13.6832 9.15303L20.0846 2.75174C20.4566 2.37963 21.06 2.37963 21.4321 2.75174C21.8042 3.12384 21.8042 3.72716 21.4321 4.09926L14.8135 10.7179L21.5308 20.0188C21.7403 20.3089 21.7696 20.6919 21.6067 21.0105C21.4438 21.3291 21.1161 21.5295 20.7583 21.5295H15.9941C15.6881 21.5295 15.4008 21.3826 15.2217 21.1346L10.6822 14.8492L4.2809 21.2504C3.9088 21.6226 3.3055 21.6226 2.93338 21.2504C2.56127 20.8784 2.56127 20.275 2.93338 19.9029L9.55201 13.2843L2.83469 3.98338C2.6252 3.6933 2.59587 3.31031 2.75877 2.99172Z" fill="#2B2B2B"/>
</svg>
