<svg width="24" height="24" viewBox="0 0 24 24" fill="none" xmlns="http://www.w3.org/2000/svg">
<path fill-rule="evenodd" clip-rule="evenodd" d="M6.90707 3.47082C8.52836 3.14033 10.2735 2.96094 12.0898 2.96094C13.9062 2.96094 15.6513 3.14033 17.2725 3.47082L17.3969 3.49615C19.2485 3.87302 20.4822 4.12413 21.5453 5.49102C22.5971 6.84324 22.5965 8.4114 22.5955 10.8401V13.1613C22.5965 15.5901 22.5971 17.1582 21.5453 18.5105C20.4822 19.8774 19.2485 20.1284 17.3969 20.5053L17.2725 20.5307C15.6513 20.8611 13.9062 21.0405 12.0898 21.0405C10.2735 21.0405 8.52836 20.8611 6.90707 20.5307L6.78268 20.5053C4.93111 20.1284 3.69739 19.8774 2.63427 18.5105C1.58254 17.1582 1.58313 15.5901 1.58404 13.1613V10.8401C1.58313 8.4114 1.58254 6.84324 2.63427 5.49102C3.69739 4.12413 4.93111 3.87302 6.78268 3.49615L6.90707 3.47082ZM11.4003 8.33814C11.9071 8.55082 12.5226 8.89459 13.2752 9.31492C13.3743 9.37024 13.4739 9.4252 13.5736 9.48022C14.0656 9.75181 14.5604 10.025 15.0167 10.353C15.4267 10.6479 15.8158 11.0133 15.9446 11.5462C16.0169 11.8453 16.0169 12.1561 15.9446 12.4553C15.8158 12.9882 15.4267 13.3536 15.0167 13.6484C14.5604 13.9765 14.0655 14.2497 13.5735 14.5213C13.4738 14.5763 13.3743 14.6313 13.2752 14.6866C12.5226 15.1069 11.9072 15.4506 11.4003 15.6634C10.5765 16.009 9.70291 16.0371 8.98489 15.4488C8.5355 15.0805 8.37665 14.5533 8.30695 14.022C8.13851 12.738 8.13844 11.2641 8.30695 9.97945C8.37665 9.44815 8.5355 8.92093 8.98489 8.55272C9.70291 7.96442 10.5765 7.99239 11.4003 8.33814Z" fill="#2B2B2B"/>
</svg>
